<?xml version="1.0" encoding="UTF-8" standalone="no"?>
<!-- Generator: Adobe Illustrator 19.2.1, SVG Export Plug-In . SVG Version: 6.00 Build 0)  -->

<svg
   xmlns:dc="http://purl.org/dc/elements/1.1/"
   xmlns:cc="http://creativecommons.org/ns#"
   xmlns:rdf="http://www.w3.org/1999/02/22-rdf-syntax-ns#"
   xmlns:svg="http://www.w3.org/2000/svg"
   xmlns="http://www.w3.org/2000/svg"
   xmlns:sodipodi="http://sodipodi.sourceforge.net/DTD/sodipodi-0.dtd"
   xmlns:inkscape="http://www.inkscape.org/namespaces/inkscape"
   version="1.1"
   id="Form_6_1_"
   x="0px"
   y="0px"
   viewBox="0 0 500 475"
   style="enable-background:new 0 0 500 475;"
   xml:space="preserve"
   inkscape:version="0.91 r13725"
   sodipodi:docname="Icon_Star_grey.svg"><metadata
     id="metadata18"><rdf:RDF><cc:Work
         rdf:about=""><dc:format>image/svg+xml</dc:format><dc:type
           rdf:resource="http://purl.org/dc/dcmitype/StillImage" /><dc:title></dc:title></cc:Work></rdf:RDF></metadata><defs
     id="defs16" /><sodipodi:namedview
     pagecolor="#ffffff"
     bordercolor="#666666"
     borderopacity="1"
     objecttolerance="10"
     gridtolerance="10"
     guidetolerance="10"
     inkscape:pageopacity="0"
     inkscape:pageshadow="2"
     inkscape:window-width="1882"
     inkscape:window-height="1051"
     id="namedview14"
     showgrid="false"
     inkscape:zoom="0.49684211"
     inkscape:cx="-49.894065"
     inkscape:cy="207.30932"
     inkscape:window-x="38"
     inkscape:window-y="0"
     inkscape:window-maximized="1"
     inkscape:current-layer="Form_6_1_" /><style
     type="text/css"
     id="style3">
	.st0{fill-rule:evenodd;clip-rule:evenodd;fill:#FFFFFF;}
	.st1{fill:#FFFFFF;}
</style><g
     id="Form_6"
     style="fill:#000000;fill-opacity:1"><g
       id="g10"
       style="fill:#000000;fill-opacity:1"><path
         class="st1"
         d="M250,51.7l60.5,109.6l5.7,10.3l11.5,2.2l123,23.6l-85.6,91.3l-8,8.6l1.5,11.6l15.5,124.2L260.6,380l-10.6-5    l-10.6,5l-113.4,53.2L141.5,309l1.5-11.6l-8-8.6l-85.6-91.3l123-23.6l11.5-2.2l5.7-10.3L250,51.7 M250,0l-82.4,149.3L0,181.4    l116.6,124.4L95.5,475L250,402.6L404.5,475l-21.2-169.1L500,181.4l-167.6-32.2L250,0L250,0z"
         id="path12"
         style="fill:#000000;fill-opacity:1" /></g></g></svg>
