<?xml version="1.0" encoding="UTF-8"?>
<svg width="15px" height="14px" viewBox="0 0 15 14" version="1.1" xmlns="http://www.w3.org/2000/svg" xmlns:xlink="http://www.w3.org/1999/xlink">
    <!-- Generator: Sketch 45.1 (43504) - http://www.bohemiancoding.com/sketch -->
    <title>Fax</title>
    <desc>Created with Sketch.</desc>
    <defs></defs>
    <g id="Final-Freigegeben-von-CV" stroke="none" stroke-width="1" fill="none" fill-rule="evenodd">
        <g id="01--Footer" transform="translate(-884.000000, -126.000000)" fill="#444444">
            <g id="Fax" transform="translate(884.000000, 125.000000)">
                <g id="Page-1" transform="translate(0.000000, 0.818182)">
                    <g id="Group-3" transform="translate(0.000000, 0.072437)">
                        <path d="M13.9390625,6.803 C13.9390625,7.256125 13.5715625,7.62425 13.1190625,7.62425 C12.6671875,7.62425 12.2990625,7.257375 12.2990625,6.8055 L12.2990625,4.433 L12.2859375,4.4255 C12.2859375,4.4255 12.2934375,4.372375 12.2990625,4.3005 L12.2990625,4.071125 L12.2990625,4.058 C12.2721875,3.724875 12.1215625,3.2855 11.5115625,3.2855 L3.0428125,3.2855 C2.3609375,3.2855 2.2146875,3.666125 2.1865625,3.898 L2.1865625,4.071125 L2.1865625,6.8055 C2.1865625,7.257375 1.8184375,7.62425 1.3665625,7.62425 C0.9146875,7.62425 0.5465625,7.256125 0.5465625,6.803 L0.5465625,1.88675 C0.5465625,1.433625 0.9490625,1.09925 1.4009375,1.09925 L13.1528125,1.09925 C13.6053125,1.09925 13.9390625,1.433625 13.9390625,1.88675 L13.9390625,6.803 Z M11.7521875,6.8055 L11.7521875,12.578625 L2.7334375,12.578625 L2.7334375,6.8055 L2.7334375,4.071125 C2.7334375,3.921125 2.8909375,3.832375 3.0428125,3.832375 L11.5115625,3.832375 C11.6634375,3.832375 11.7521875,3.921125 11.7521875,4.071125 L11.7521875,6.8055 Z M13.1528125,0.553 L1.4009375,0.553 C0.6471875,0.553 0.0003125,1.132375 0.0003125,1.88675 L0.0003125,6.803 C0.0003125,7.557375 0.6134375,8.171125 1.3665625,8.171125 C1.6753125,8.171125 1.9815625,8.064875 2.1865625,7.891125 L2.1865625,12.817375 C2.1865625,12.968625 2.3428125,13.124875 2.4940625,13.124875 L12.0603125,13.124875 C12.2109375,13.124875 12.2990625,12.968625 12.2990625,12.817375 L12.2990625,7.891125 C12.5721875,8.064875 12.8103125,8.171125 13.1190625,8.171125 C13.8728125,8.171125 14.4859375,7.557375 14.4859375,6.803 L14.4859375,1.88675 C14.4859375,1.132375 13.9065625,0.553 13.1528125,0.553 L13.1528125,0.553 Z" id="Fill-1"></path>
                    </g>
                    <path d="M10.1725625,7.063125 L4.3131875,7.063125 C4.1406875,7.063125 4.0006875,6.923125 4.0006875,6.750625 C4.0006875,6.578125 4.1406875,6.438125 4.3131875,6.438125 L10.1725625,6.438125 C10.3450625,6.438125 10.4850625,6.578125 10.4850625,6.750625 C10.4850625,6.923125 10.3450625,7.063125 10.1725625,7.063125" id="Fill-4"></path>
                    <path d="M7.242875,8.7568125 L4.265375,8.7568125 C4.092875,8.7568125 3.952875,8.6168125 3.952875,8.4443125 C3.952875,8.2718125 4.092875,8.1318125 4.265375,8.1318125 L7.242875,8.1318125 C7.415375,8.1318125 7.555375,8.2718125 7.555375,8.4443125 C7.555375,8.6168125 7.415375,8.7568125 7.242875,8.7568125" id="Fill-6"></path>
                    <path d="M9.3043125,10.344375 L4.2655625,10.344375 C4.0930625,10.344375 3.9530625,10.204375 3.9530625,10.031875 C3.9530625,9.859375 4.0930625,9.719375 4.2655625,9.719375 L9.3043125,9.719375 C9.4768125,9.719375 9.6168125,9.859375 9.6168125,10.031875 C9.6168125,10.204375 9.4768125,10.344375 9.3043125,10.344375" id="Fill-8"></path>
                </g>
            </g>
        </g>
    </g>
</svg>