<?xml version="1.0" encoding="UTF-8"?>
<svg width="15px" height="16px" viewBox="0 0 15 16" version="1.1" xmlns="http://www.w3.org/2000/svg" xmlns:xlink="http://www.w3.org/1999/xlink">
    <!-- Generator: Sketch 45.1 (43504) - http://www.bohemiancoding.com/sketch -->
    <title>Telefon</title>
    <desc>Created with Sketch.</desc>
    <defs></defs>
    <g id="Final-Freigegeben-von-CV" stroke="none" stroke-width="1" fill="none" fill-rule="evenodd">
        <g id="01--Footer" transform="translate(-884.000000, -102.000000)" fill="#444444">
            <g id="Telefon" transform="translate(884.000000, 102.000000)">
                <g id="Page-1">
                    <g id="Group-3" transform="translate(0.000000, 1.000364)">
                        <path d="M2.44861364,1.28004545 C2.37225,1.28004545 2.27543182,1.33118182 2.17725,1.42322727 L1.05225,2.54890909 C0.832704545,2.76777273 0.718159091,3.01390909 0.69225,3.32345455 C0.645886364,3.88390909 0.754295455,4.47981818 1.04338636,5.25436364 C1.53156818,6.573 2.27338636,7.80709091 3.37861364,9.13868182 C4.71770455,10.7375455 6.32952273,12.0002727 8.16770455,12.8900455 C8.82565909,13.2050455 9.70179545,13.5745909 10.6324773,13.6339091 C10.6754318,13.6373182 10.7204318,13.6359545 10.7633864,13.6366364 C11.1833864,13.6366364 11.4915682,13.5070909 11.7636136,13.2166364 C11.9702045,12.9718636 12.2013409,12.7448182 12.4181591,12.5382273 L12.4945227,12.4639091 C12.5817955,12.3786818 12.6663409,12.2968636 12.7488409,12.2116364 L12.7945227,12.0398182 L12.9015682,12.0391364 C13.0174773,11.8768636 12.9888409,11.7541364 12.8156591,11.5823182 L10.9774773,9.74413636 C10.9386136,9.70186364 10.8390682,9.60163636 10.7402045,9.60163636 C10.6692955,9.60163636 10.5738409,9.65618182 10.4790682,9.75095455 L9.34315909,10.8868636 C8.99270455,11.2352727 8.54747727,11.3116364 8.11656818,11.0968636 L8.04906818,11.058 C7.96315909,11.0048182 7.86225,10.9550455 7.75656818,10.9018636 C7.60452273,10.8261818 7.45520455,10.7505 7.30861364,10.6577727 C6.21156818,9.96368182 5.21952273,9.06231818 4.27656818,7.9005 C3.74134091,7.22140909 3.39565909,6.65686364 3.15020455,6.06231818 C3.08202273,5.853 2.93815909,5.39481818 3.34588636,4.94959091 L3.42088636,4.87390909 C3.70043182,4.62368182 3.96088636,4.36254545 4.23429545,4.08231818 C4.30725,4.01209091 4.37065909,3.948 4.43475,3.88254545 L4.52270455,3.79459091 C4.59770455,3.71890909 4.68702273,3.6105 4.68702273,3.5205 C4.68702273,3.42981818 4.59770455,3.32140909 4.52270455,3.24640909 L3.29611364,2.013 C3.09838636,1.80845455 2.90952273,1.61618182 2.71043182,1.43072727 C2.64293182,1.36322727 2.54543182,1.28004545 2.44861364,1.28004545 M10.7633864,14.3184545 C10.7061136,14.3184545 10.64475,14.3184545 10.5874773,14.3143636 C9.54088636,14.2475455 8.58634091,13.8466364 7.87247727,13.5043636 C5.94497727,12.5716364 4.25747727,11.2502727 2.85497727,9.57572727 C1.69793182,8.18140909 0.919977273,6.88390909 0.404522727,5.49163636 C0.0786136364,4.62027273 -0.0420681818,3.93368182 0.0124772727,3.26618182 C0.0527045455,2.793 0.23475,2.40095455 0.570204545,2.06618182 L1.70270455,0.933681818 C2.17793182,0.487090909 2.74111364,0.498681818 3.17406818,0.930272727 C3.38270455,1.12527273 3.57975,1.32572727 3.78634091,1.53845455 L5.00475,2.76436364 C5.24679545,3.00572727 5.36884091,3.26004545 5.36884091,3.5205 C5.36884091,3.78027273 5.24679545,4.03459091 5.00475,4.27595455 L4.92020455,4.36186364 C4.85134091,4.43072727 4.78384091,4.49959091 4.71429545,4.56640909 C4.43952273,4.84731818 4.17088636,5.11663636 3.87906818,5.37913636 L3.86884091,5.38868182 C3.72838636,5.52913636 3.72906818,5.63754545 3.78020455,5.79981818 C4.00111364,6.33640909 4.31747727,6.85118182 4.80565909,7.47163636 C5.70156818,8.57413636 6.63906818,9.42777273 7.67338636,10.0816364 C7.79952273,10.1620909 7.92838636,10.2261818 8.05179545,10.2868636 C8.18815909,10.3557273 8.30679545,10.4157273 8.40838636,10.4791364 C8.64565909,10.6032273 8.76565909,10.4995909 8.86111364,10.4048182 L9.99702273,9.26822727 C10.2261136,9.03981818 10.4831591,8.91981818 10.7402045,8.91981818 C11.09475,8.91981818 11.34975,9.14072727 11.4704318,9.273 L13.2963409,11.0989091 C13.7661136,11.5639091 13.7702045,12.1305 13.3065682,12.6139091 C13.1981591,12.7305 13.0870227,12.8389091 12.96975,12.9527727 L12.8913409,13.0291364 C12.6854318,13.2261818 12.4692955,13.4375455 12.27225,13.6700455 C11.8611136,14.1105 11.3708864,14.3184545 10.7633864,14.3184545" id="Fill-1"></path>
                    </g>
                    <path d="M12.3043636,7.54554545 C12.1414091,7.54554545 11.9968636,7.42827273 11.9689091,7.26190909 C11.8011818,6.27872727 11.3368636,5.3835 10.6250455,4.67168182 C9.91390909,3.96054545 9.018,3.49622727 8.03481818,3.3285 C7.84936364,3.29713636 7.72459091,3.12122727 7.75595455,2.93509091 C7.78731818,2.74963636 7.96663636,2.62963636 8.14936364,2.65622727 C9.27231818,2.84713636 10.2950455,3.37759091 11.1070909,4.18963636 C11.9191364,5.00168182 12.4495909,6.02440909 12.6405,7.14736364 C12.6725455,7.33281818 12.5477727,7.50872727 12.3616364,7.54077273 C12.3425455,7.54418182 12.3234545,7.54554545 12.3043636,7.54554545" id="Fill-4"></path>
                    <g id="Group-8" transform="translate(7.500000, 0.318545)">
                        <path d="M6.76759091,7.24363636 C6.60395455,7.24363636 6.46009091,7.12636364 6.43145455,6.95931818 C6.18122727,5.48113636 5.48236364,4.13318182 4.41054545,3.06136364 C3.33531818,1.98886364 1.98736364,1.29 0.512590909,1.04045455 C0.326454545,1.00840909 0.201681818,0.8325 0.233045455,0.647045455 C0.264409091,0.461590909 0.440318182,0.3375 0.626454545,0.368181818 C2.241,0.641590909 3.71645455,1.40590909 4.89259091,2.57863636 C6.06531818,3.75136364 6.82963636,5.22681818 7.10440909,6.84613636 C7.13577273,7.03090909 7.01031818,7.2075 6.82486364,7.23886364 C6.80577273,7.24227273 6.78668182,7.24363636 6.76759091,7.24363636" id="Fill-6"></path>
                    </g>
                </g>
            </g>
        </g>
    </g>
</svg>