<?xml version="1.0" encoding="utf-8"?>
<!-- Generator: Adobe Illustrator 16.0.4, SVG Export Plug-In . SVG Version: 6.00 Build 0)  -->
<!DOCTYPE svg PUBLIC "-//W3C//DTD SVG 1.1//EN" "http://www.w3.org/Graphics/SVG/1.1/DTD/svg11.dtd">
<svg version="1.1" id="Ebene_1" xmlns="http://www.w3.org/2000/svg" xmlns:xlink="http://www.w3.org/1999/xlink" x="0px" y="0px"
	 width="181.235px" height="70.866px" viewBox="0 0 181.235 70.866" enable-background="new 0 0 181.235 70.866"
	 xml:space="preserve">
<g>
	<path fill="#1A171B" d="M0,0.771h51.416v12.71h-36.3v14.732h33.315V39.96H15.115v16.849h37.072V69.52H0V0.771z"/>
	<path fill="#FF0000" d="M103.348,62.682c-5.486,5.395-11.552,8.184-19.352,8.184c-12.422,0-22.244-7.604-22.244-20.604
		c0-9.626,7.317-16.175,15.407-19.931c-3.66-4.526-6.548-8.667-6.548-14.636C70.611,6.163,79.374,0,88.521,0
		c10.399,0,18.87,5.586,18.87,16.466c0,7.991-5.294,13.481-12.23,17.137l8.862,10.88c1.351-2.501,2.118-5.39,2.501-8.183h11.848
		c-0.676,6.162-2.793,12.134-6.646,16.946l13.965,16.274h-16.757L103.348,62.682z M84.38,39.188
		c-4.812,2.119-9.627,5.779-9.627,11.364c0,5.007,4.622,9.05,9.821,9.05c4.911,0,8.377-2.504,11.554-6.065L84.38,39.188z
		 M89.194,9.147c-3.272,0-6.161,2.503-6.161,6.065c0,4.333,2.791,7.126,5.392,10.303c3.851-2.503,7.027-4.814,7.027-9.821
		C95.453,12.132,92.563,9.147,89.194,9.147z"/>
	<path fill="#1A171B" d="M158.415,69.52h-17.04L119.031,0.771h15.599l15.309,48.335h0.199l15.498-48.335h15.6L158.415,69.52z"/>
</g>
</svg>
