<?xml version="1.0" encoding="utf-8"?>
<!-- Generator: Adobe Illustrator 16.0.4, SVG Export Plug-In . SVG Version: 6.00 Build 0)  -->
<!DOCTYPE svg PUBLIC "-//W3C//DTD SVG 1.1//EN" "http://www.w3.org/Graphics/SVG/1.1/DTD/svg11.dtd">
<svg version="1.1" id="Ebene_1" xmlns="http://www.w3.org/2000/svg" xmlns:xlink="http://www.w3.org/1999/xlink" x="0px" y="0px"
	 width="224.961px" height="122.377px" viewBox="0 0 224.961 122.377" enable-background="new 0 0 224.961 122.377"
	 xml:space="preserve">
<path fill="#FF0000" d="M114.369,80.596v28.67h-3.269c-11.54,8.209-27.592,13.111-43.466,13.111C30.281,122.377,0,104.531,0,61.735
	C0,28.244,27.062-0.014,64.415,0c14.089,0.005,26.807,4.78,34.236,7.683c0.588,0.297,2.415,0.627,3.101,0.627
	c2.521,0,4.951-2.219,5.085-5.032h4.348v37.515h-4.026C103.375,20.487,87.561,5.827,69.407,5.827
	c-24.639,0-44.446,25.514-44.446,56.09c0,30.575,17.817,54.087,41.387,54.087c6.746,0,13.154-2.031,18.829-5.646
	c3.175-2.098,5.822-5.777,7.584-9.752c5.626-12.682,0.334-28.721-7.487-31.578c-1.553-0.567-3.134-1.17-4.749-1.142l-0.116-0.065
	l-6.788,0v-4.963h56.993v4.963l-6.283,0c-6.443,0.609-9.949,6.22-9.949,12.689L114.369,80.596L114.369,80.596z"/>
<path fill="#FF0000" d="M94.347,61.917l0-0.183c0-11.326,3.095-22.054,8.637-31.292c1.452,3.272,2.557,6.797,3.251,10.522
	l0.144,0.768h5.747v-23.01C123.584,7.23,139.854-0.006,158.762,0c14.088,0.005,26.807,4.78,34.236,7.683
	c0.588,0.298,2.414,0.628,3.1,0.628c2.521,0,4.951-2.219,5.086-5.033h4.348v37.514h-4.025
	c-3.785-20.305-19.598-34.965-37.752-34.965c-24.639,0-44.447,25.514-44.447,56.09H94.347L94.347,61.917z M208.715,80.596v28.67
	h-3.268c-11.539,8.209-27.592,13.111-43.465,13.111c-18.098,0-34.535-4.189-46.674-13.375l0.012-28.492
	c0-4.264,1.576-7.985,4.463-10.059c2.973,26.309,19.588,45.553,40.91,45.553c6.746,0,13.154-2.031,18.83-5.646
	c3.174-2.098,5.82-5.777,7.584-9.752c5.627-12.682,0.334-28.72-7.488-31.578c-1.553-0.567-3.133-1.17-4.748-1.142l-6.904-0.065
	v-4.963h56.994v4.963h-6.285c-6.443,0.608-9.949,6.219-9.949,12.689L208.715,80.596L208.715,80.596z"/>
</svg>
