<?xml version="1.0" encoding="utf-8"?>
<!-- Generator: Adobe Illustrator 16.0.4, SVG Export Plug-In . SVG Version: 6.00 Build 0)  -->
<!DOCTYPE svg PUBLIC "-//W3C//DTD SVG 1.1//EN" "http://www.w3.org/Graphics/SVG/1.1/DTD/svg11.dtd">
<svg version="1.1" xmlns="http://www.w3.org/2000/svg" xmlns:xlink="http://www.w3.org/1999/xlink" x="0px" y="0px"
	 width="217.302px" height="45.521px" viewBox="0 0 217.302 45.521" enable-background="new 0 0 217.302 45.521"
	 xml:space="preserve">
<g id="Ebene_1">
	<g>
		<path d="M0,4.829h13.088v3.235h-9.24v3.75h8.48v2.99h-8.48v4.289h9.437v3.235H0V4.829z"/>
		<path d="M16.25,4.829h3.823l7.304,11.74h0.049V4.829h3.603v17.5h-3.848l-7.279-11.716h-0.049v11.716H16.25V4.829z"/>
		<path d="M47.059,20.343c-1.348,1.74-3.113,2.402-4.804,2.402c-5.417,0-8.603-4.045-8.603-9.094c0-5.196,3.187-9.24,8.603-9.24
			c3.579,0,6.961,2.206,7.377,6.177h-3.676c-0.441-1.937-1.887-2.941-3.701-2.941c-3.456,0-4.755,2.941-4.755,6.005
			c0,2.917,1.299,5.858,4.755,5.858c2.5,0,3.946-1.349,4.167-3.774h-3.873v-2.868h7.353v9.461h-2.451L47.059,20.343z"/>
		<path d="M53.259,4.829h13.088v3.235h-9.24v3.75h8.48v2.99h-8.48v4.289h9.437v3.235H53.259V4.829z"/>
		<path d="M69.387,4.829h3.848v14.265h8.53v3.235H69.387V4.829z"/>
		<path fill="#FF0000" d="M94.95,20.588c-1.397,1.373-2.941,2.083-4.926,2.083c-3.162,0-5.662-1.936-5.662-5.245
			c0-2.45,1.863-4.117,3.922-5.073c-0.932-1.152-1.667-2.206-1.667-3.726c0-2.426,2.23-3.995,4.559-3.995
			c2.647,0,4.804,1.422,4.804,4.191c0,2.034-1.348,3.432-3.113,4.362l2.255,2.77c0.343-0.637,0.54-1.372,0.638-2.083h3.015
			c-0.172,1.568-0.711,3.089-1.691,4.313l3.554,4.143h-4.265L94.95,20.588z M90.122,14.608c-1.225,0.539-2.451,1.471-2.451,2.893
			c0,1.274,1.176,2.304,2.5,2.304c1.25,0,2.132-0.638,2.941-1.544L90.122,14.608z M91.347,6.961c-0.833,0-1.568,0.637-1.568,1.544
			c0,1.103,0.71,1.814,1.373,2.623c0.98-0.637,1.789-1.226,1.789-2.5C92.94,7.721,92.205,6.961,91.347,6.961z"/>
		<path d="M110.073,22.329h-4.338l-5.687-17.5h3.971l3.897,12.304h0.049l3.946-12.304h3.971L110.073,22.329z"/>
		<path d="M125.146,4.412c5.417,0,8.604,4.044,8.604,9.24c0,5.049-3.187,9.094-8.604,9.094c-5.416,0-8.604-4.045-8.604-9.094
			C116.542,8.456,119.729,4.412,125.146,4.412z M125.146,19.51c3.456,0,4.755-2.941,4.755-5.858c0-3.063-1.299-6.005-4.755-6.005
			c-3.455,0-4.755,2.941-4.755,6.005C120.391,16.569,121.69,19.51,125.146,19.51z M120.979,0h3.309v2.868h-3.309V0z M126.028,0
			h3.309v2.868h-3.309V0z"/>
		<path d="M136.298,4.829h3.848v14.265h8.53v3.235h-12.378V4.829z"/>
		<path d="M150.833,4.829h3.848v7.255l6.838-7.255h4.805l-6.839,6.912l7.5,10.588h-4.829l-5.27-7.868l-2.205,2.23v5.638h-3.848
			V4.829z"/>
		<path d="M169.19,4.829h13.088v3.235h-9.24v3.75h8.48v2.99h-8.48v4.289h9.436v3.235H169.19V4.829z"/>
		<path d="M185.733,4.829h9.437c3.138,0,5.122,2.181,5.122,4.828c0,2.059-0.833,3.604-2.77,4.388v0.049
			c1.888,0.49,2.427,2.328,2.549,4.093c0.074,1.104,0.05,3.162,0.736,4.143h-3.849c-0.466-1.103-0.417-2.794-0.612-4.191
			c-0.27-1.838-0.98-2.646-2.917-2.646h-3.849v6.838h-3.848V4.829z M189.581,12.746h4.217c1.715,0,2.646-0.735,2.646-2.5
			c0-1.691-0.932-2.426-2.646-2.426h-4.217V12.746z"/>
		<path d="M206.298,16.52c0,2.328,1.812,3.235,3.872,3.235c1.348,0,3.407-0.393,3.407-2.182c0-1.888-2.623-2.206-5.197-2.893
			c-2.598-0.686-5.221-1.69-5.221-4.975c0-3.579,3.383-5.294,6.545-5.294c3.652,0,7.01,1.593,7.01,5.638h-3.726
			c-0.122-2.108-1.618-2.647-3.456-2.647c-1.225,0-2.646,0.515-2.646,1.985c0,1.348,0.833,1.52,5.221,2.647
			c1.273,0.318,5.195,1.127,5.195,5.098c0,3.211-2.524,5.613-7.279,5.613c-3.873,0-7.5-1.912-7.451-6.226H206.298z"/>
		<path fill="#FF0000" d="M106.064,38.707l-6.075-10.071h4.089l3.857,6.514l3.835-6.514h4.043l-6.122,10.164v6.329h-3.627V38.707z"
			/>
		<path fill="#FF0000" d="M119.394,28.635h3.719l6.168,16.493h-3.766l-1.247-3.673H118.1l-1.294,3.673h-3.672L119.394,28.635z
			 M119.047,38.752h4.273l-2.079-6.052h-0.046L119.047,38.752z"/>
		<path fill="#FF0000" d="M141.477,34.179c-0.231-1.641-1.802-2.888-3.604-2.888c-3.257,0-4.481,2.772-4.481,5.659
			c0,2.749,1.225,5.521,4.481,5.521c2.218,0,3.465-1.524,3.742-3.696h3.511c-0.369,4.112-3.211,6.745-7.253,6.745
			c-5.104,0-8.108-3.812-8.108-8.57c0-4.896,3.004-8.708,8.108-8.708c3.626,0,6.676,2.125,7.114,5.937H141.477z"/>
		<path fill="#FF0000" d="M147.251,28.635h3.627v6.329h6.676v-6.329h3.627v16.493h-3.627v-7.115h-6.676v7.115h-3.627V28.635z"/>
		<path fill="#FF0000" d="M168.019,31.684h-4.943v-3.049h13.514v3.049h-4.943v13.444h-3.627V31.684z"/>
		<path fill="#FF0000" d="M178.829,28.635h3.627v16.493h-3.627V28.635z"/>
		<path fill="#FF0000" d="M185.759,28.635h3.604l6.885,11.064h0.046V28.635h3.396v16.493h-3.627l-6.86-11.042h-0.046v11.042h-3.396
			V28.635z"/>
		<path fill="#FF0000" d="M214.565,43.257c-1.271,1.64-2.935,2.264-4.528,2.264c-5.104,0-8.108-3.812-8.108-8.57
			c0-4.896,3.004-8.708,8.108-8.708c3.372,0,6.561,2.079,6.953,5.821h-3.465c-0.416-1.825-1.778-2.772-3.488-2.772
			c-3.257,0-4.481,2.772-4.481,5.659c0,2.749,1.225,5.521,4.481,5.521c2.356,0,3.72-1.271,3.927-3.558h-3.649v-2.703h6.93v8.917
			h-2.31L214.565,43.257z"/>
	</g>
</g>
<g id="Hilfslinien" display="none">
</g>
</svg>
