<?xml version="1.0" encoding="utf-8"?>
<!-- Generator: Adobe Illustrator 16.0.4, SVG Export Plug-In . SVG Version: 6.00 Build 0)  -->
<!DOCTYPE svg PUBLIC "-//W3C//DTD SVG 1.1//EN" "http://www.w3.org/Graphics/SVG/1.1/DTD/svg11.dtd">
<svg version="1.1" xmlns="http://www.w3.org/2000/svg" xmlns:xlink="http://www.w3.org/1999/xlink" x="0px" y="0px" width="217.3px"
	 height="45.517px" viewBox="0 0 217.3 45.517" enable-background="new 0 0 217.3 45.517" xml:space="preserve">
<g id="Ebene_1">
	<g>
		<path d="M0,4.828h13.086v3.235H3.847v3.75h8.479v2.989H3.847v4.289h9.435v3.234H0V4.828z"/>
		<path d="M16.25,4.828h3.823l7.303,11.738h0.049V4.828h3.603v17.497H27.18l-7.278-11.714h-0.049v11.714H16.25V4.828z"/>
		<path d="M47.057,20.339c-1.348,1.74-3.112,2.402-4.803,2.402c-5.416,0-8.602-4.044-8.602-9.092c0-5.195,3.186-9.239,8.602-9.239
			c3.578,0,6.959,2.206,7.376,6.175h-3.676c-0.441-1.936-1.887-2.94-3.7-2.94c-3.456,0-4.754,2.94-4.754,6.004
			c0,2.916,1.298,5.856,4.754,5.856c2.5,0,3.945-1.348,4.166-3.773h-3.872v-2.867h7.352v9.459h-2.45L47.057,20.339z"/>
		<path d="M53.259,4.828h13.086v3.235h-9.239v3.75h8.479v2.989h-8.479v4.289h9.435v3.234H53.259V4.828z"/>
		<path d="M69.387,4.828h3.847V19.09h8.528v3.234H69.387V4.828z"/>
		<path fill="#FF0000" d="M94.949,20.584c-1.397,1.373-2.941,2.083-4.926,2.083c-3.161,0-5.661-1.936-5.661-5.244
			c0-2.45,1.862-4.116,3.921-5.072c-0.931-1.152-1.667-2.206-1.667-3.725c0-2.426,2.23-3.994,4.558-3.994
			c2.646,0,4.803,1.421,4.803,4.19c0,2.034-1.348,3.43-3.112,4.362l2.254,2.77c0.343-0.638,0.539-1.373,0.637-2.083h3.014
			c-0.171,1.568-0.71,3.087-1.691,4.312l3.553,4.142H96.37L94.949,20.584z M90.121,14.605c-1.225,0.54-2.451,1.471-2.451,2.893
			c0,1.273,1.176,2.303,2.5,2.303c1.25,0,2.132-0.637,2.941-1.544L90.121,14.605z M91.346,6.959c-0.833,0-1.568,0.637-1.568,1.544
			c0,1.103,0.711,1.813,1.373,2.622c0.98-0.637,1.789-1.225,1.789-2.5C92.939,7.719,92.204,6.959,91.346,6.959z"/>
		<path d="M110.071,22.325h-4.337l-5.685-17.497h3.97l3.896,12.302h0.049l3.946-12.302h3.97L110.071,22.325z"/>
		<path d="M125.144,4.411c5.416,0,8.602,4.043,8.602,9.239c0,5.048-3.186,9.092-8.602,9.092s-8.602-4.044-8.602-9.092
			C116.542,8.455,119.728,4.411,125.144,4.411z M125.144,19.506c3.455,0,4.754-2.94,4.754-5.856c0-3.063-1.299-6.004-4.754-6.004
			s-4.754,2.94-4.754,6.004C120.39,16.566,121.689,19.506,125.144,19.506z M120.978,0h3.309v2.867h-3.309V0z M126.027,0h3.309v2.867
			h-3.309V0z"/>
		<path d="M136.298,4.828h3.848V19.09h8.527v3.234h-12.375V4.828z"/>
		<path d="M150.833,4.828h3.847v7.254l6.838-7.254h4.803l-6.837,6.911l7.499,10.586h-4.828l-5.269-7.866l-2.206,2.229v5.637h-3.847
			V4.828z"/>
		<path d="M169.19,4.828h13.086v3.235h-9.239v3.75h8.479v2.989h-8.479v4.289h9.436v3.234H169.19V4.828z"/>
		<path d="M185.734,4.828h9.435c3.137,0,5.122,2.181,5.122,4.828c0,2.059-0.834,3.602-2.77,4.386v0.049
			c1.887,0.49,2.426,2.328,2.549,4.093c0.073,1.103,0.049,3.161,0.734,4.142h-3.847c-0.466-1.103-0.417-2.794-0.612-4.19
			c-0.27-1.838-0.98-2.646-2.916-2.646h-3.848v6.837h-3.848V4.828z M189.582,12.743h4.215c1.715,0,2.646-0.734,2.646-2.499
			c0-1.691-0.932-2.426-2.646-2.426h-4.215V12.743z"/>
		<path d="M206.296,16.517c0,2.328,1.814,3.234,3.873,3.234c1.348,0,3.406-0.392,3.406-2.181c0-1.887-2.623-2.206-5.195-2.892
			c-2.598-0.687-5.221-1.691-5.221-4.975c0-3.578,3.383-5.293,6.543-5.293c3.652,0,7.01,1.593,7.01,5.636h-3.726
			c-0.122-2.107-1.617-2.646-3.455-2.646c-1.226,0-2.647,0.515-2.647,1.985c0,1.348,0.834,1.52,5.221,2.647
			c1.273,0.318,5.195,1.127,5.195,5.097c0,3.21-2.524,5.612-7.279,5.612c-3.871,0-7.498-1.912-7.449-6.225H206.296z"/>
		<path fill="#FF0000" d="M53.259,28.629h7.438c4.112,0,5.706,2.611,5.706,5.291s-1.594,5.29-5.706,5.29h-3.812v5.914h-3.627V28.629
			z M56.886,36.392h2.818c1.687,0,3.188-0.37,3.188-2.472c0-2.103-1.501-2.473-3.188-2.473h-2.818V36.392z"/>
		<path fill="#FF0000" d="M75.943,28.237c5.105,0,8.108,3.812,8.108,8.71c0,4.759-3.003,8.57-8.108,8.57s-8.109-3.812-8.109-8.57
			C67.834,32.049,70.838,28.237,75.943,28.237z M75.943,42.468c3.257,0,4.481-2.772,4.481-5.521c0-2.888-1.224-5.66-4.481-5.66
			c-3.258,0-4.482,2.772-4.482,5.66C71.461,39.696,72.686,42.468,75.943,42.468z"/>
		<path fill="#FF0000" d="M86.176,28.629h3.627v13.445h8.039v3.05H86.176V28.629z"/>
		<path fill="#FF0000" d="M106.458,28.237c5.105,0,8.108,3.812,8.108,8.71c0,4.759-3.003,8.57-8.108,8.57
			c-5.106,0-8.109-3.812-8.109-8.57C98.35,32.049,101.353,28.237,106.458,28.237z M106.458,42.468c3.257,0,4.481-2.772,4.481-5.521
			c0-2.888-1.224-5.66-4.481-5.66s-4.482,2.772-4.482,5.66C101.977,39.696,103.201,42.468,106.458,42.468z"/>
		<path fill="#FF0000" d="M124.06,39.649c0,2.195,1.709,3.05,3.65,3.05c1.271,0,3.211-0.369,3.211-2.056
			c0-1.779-2.473-2.079-4.897-2.727c-2.449-0.646-4.921-1.594-4.921-4.689c0-3.373,3.188-4.99,6.168-4.99
			c3.442,0,6.607,1.502,6.607,5.313h-3.512c-0.115-1.986-1.524-2.495-3.258-2.495c-1.154,0-2.494,0.485-2.494,1.871
			c0,1.271,0.785,1.433,4.92,2.495c1.201,0.301,4.898,1.063,4.898,4.806c0,3.026-2.38,5.29-6.861,5.29
			c-3.65,0-7.069-1.802-7.023-5.868H124.06z"/>
		<path fill="#FF0000" d="M147.46,34.174c-0.23-1.641-1.802-2.888-3.604-2.888c-3.258,0-4.482,2.772-4.482,5.66
			c0,2.749,1.225,5.521,4.482,5.521c2.218,0,3.465-1.525,3.742-3.696h3.512c-0.369,4.111-3.211,6.745-7.254,6.745
			c-5.105,0-8.109-3.812-8.109-8.57c0-4.897,3.004-8.71,8.109-8.71c3.627,0,6.676,2.126,7.115,5.938H147.46z"/>
		<path fill="#FF0000" d="M153.236,28.629h3.627v6.33h6.676v-6.33h3.627v16.495h-3.627v-7.115h-6.676v7.115h-3.627V28.629z"/>
		<path fill="#FF0000" d="M177.167,28.237c5.105,0,8.108,3.812,8.108,8.71c0,4.759-3.003,8.57-8.108,8.57s-8.109-3.812-8.109-8.57
			C169.058,32.049,172.062,28.237,177.167,28.237z M177.167,42.468c3.258,0,4.481-2.772,4.481-5.521c0-2.888-1.224-5.66-4.481-5.66
			s-4.482,2.772-4.482,5.66C172.685,39.696,173.91,42.468,177.167,42.468z"/>
		<path fill="#FF0000" d="M195.023,28.237c5.105,0,8.109,3.812,8.109,8.71c0,4.759-3.004,8.57-8.109,8.57s-8.108-3.812-8.108-8.57
			C186.915,32.049,189.917,28.237,195.023,28.237z M195.023,42.468c3.258,0,4.482-2.772,4.482-5.521c0-2.888-1.225-5.66-4.482-5.66
			s-4.481,2.772-4.481,5.66C190.542,39.696,191.765,42.468,195.023,42.468z"/>
		<path fill="#FF0000" d="M205.025,28.629h3.627v13.445h8.039v3.05h-11.666V28.629z"/>
	</g>
</g>
<g id="Hilfslinien" display="none">
</g>
</svg>
