<?xml version="1.0" encoding="UTF-8"?>
<svg width="321px" height="133px" viewBox="0 0 321 133" version="1.1" xmlns="http://www.w3.org/2000/svg" xmlns:xlink="http://www.w3.org/1999/xlink">
    <!-- Generator: Sketch 62 (91390) - https://sketch.com -->
    <title>logo/e&amp;v-private-office</title>
    <desc>Created with Sketch.</desc>
    <g id="Page-2" stroke="none" stroke-width="1" fill="none" fill-rule="evenodd">
        <g id="Properties-Search-V1.1" transform="translate(-90.000000, -198.000000)">
            <g id="logo/e&amp;v-private-office" transform="translate(90.000000, 194.000000)">
                <polygon id="Fill-1" fill="#000000" fill-rule="evenodd" points="0 81.381566 0 107.227827 19.5882955 107.227827 19.5882955 102.449466 5.67221591 102.449466 5.67221591 96.1148483 18.1729773 96.1148483 18.1729773 91.6981515 5.67221591 91.6981515 5.67221591 86.163581 19.300125 86.163581 19.300125 81.381566"></polygon>
                <polygon id="Fill-2" fill="#000000" fill-rule="evenodd" points="23.96265 81.3848539 29.6020364 81.3848539 40.373775 98.7228548 40.4430818 98.7228548 40.4430818 81.3848539 45.7578205 81.3848539 45.7578205 107.231115 40.0819568 107.231115 29.3466955 89.925993 29.2737409 89.925993 29.2737409 107.231115 23.96265 107.231115"></polygon>
                <path d="M69.3972818,104.299437 C67.4092705,106.871277 64.8084409,107.846676 62.3133955,107.846676 C54.3248727,107.846676 49.6266,101.873724 49.6266,94.41758 C49.6266,86.7385919 54.3248727,80.7692928 62.3133955,80.7692928 C67.5916568,80.7692928 72.5781,84.027931 73.1909182,89.8912878 L67.7703955,89.8912878 C67.1211,87.0271932 64.9871795,85.5440014 62.3133955,85.5440014 C57.2175205,85.5440014 55.2988159,89.8912878 55.2988159,94.41758 C55.2988159,98.7246814 57.2175205,103.068315 62.3133955,103.068315 C65.9976,103.068315 68.1315205,101.077331 68.4561682,97.4935591 L62.747475,97.4935591 L62.747475,93.2595214 L73.5921682,93.2595214 L73.5921682,107.232942 L69.9772705,107.232942 L69.3972818,104.299437 Z" id="Fill-3" fill="#000000" fill-rule="evenodd"></path>
                <polygon id="Fill-5" fill="#000000" fill-rule="evenodd" points="78.5414045 81.3848539 97.8415295 81.3848539 97.8415295 86.1632157 84.2172682 86.1632157 84.2172682 91.7014394 96.7216773 91.7014394 96.7216773 96.1181362 84.2172682 96.1181362 84.2172682 102.452753 98.1333477 102.452753 98.1333477 107.231115 78.5414045 107.231115"></polygon>
                <polygon id="Fill-7" fill="#000000" fill-rule="evenodd" points="102.324951 81.3848539 108.000815 81.3848539 108.000815 102.452753 120.578178 102.452753 120.578178 107.231115 102.324951 107.231115"></polygon>
                <path d="M134.709109,84.5349926 C133.479825,84.5349926 132.39645,85.4775135 132.39645,86.8109249 C132.39645,88.440244 133.443348,89.4923603 134.420939,90.6869508 C135.865439,89.748083 137.058245,88.8749726 137.058245,86.9972371 C137.058245,85.6565194 135.97487,84.5349926 134.709109,84.5349926 L134.709109,84.5349926 Z M132.903484,95.8306308 C131.094211,96.6270244 129.288586,98.0006208 129.288586,100.1012 C129.288586,101.978936 131.021257,103.498659 132.972791,103.498659 C134.818541,103.498659 136.12078,102.563445 137.309939,101.219074 L132.903484,95.8306308 Z M140.023848,104.660371 C137.962882,106.684234 135.6867,107.740003 132.757575,107.740003 C128.09578,107.740003 124.407927,104.875909 124.407927,99.9879517 C124.407927,96.3676485 127.154666,93.905404 130.189575,92.498929 C128.81803,90.7965462 127.734655,89.2366376 127.734655,86.9972371 C127.734655,83.4098126 131.021257,81.0973485 134.457416,81.0973485 C138.360484,81.0973485 141.541302,83.1942749 141.541302,87.2858385 C141.541302,90.288754 139.553291,92.3528017 136.948814,93.7300512 L140.275541,97.8179617 C140.782575,96.879094 141.070745,95.7904458 141.216655,94.7419826 L145.663234,94.7419826 C145.407893,97.0580999 144.612689,99.3048067 143.168189,101.109478 L148.409973,107.232211 L142.117643,107.232211 L140.023848,104.660371 Z" id="Fill-9" fill="#FF0000" fill-rule="evenodd"></path>
                <polygon id="Fill-11" fill="#000000" fill-rule="evenodd" points="162.325323 107.231846 155.927209 107.231846 147.541084 81.3855845 153.395686 81.3855845 159.144505 99.5528577 159.217459 99.5528577 165.035584 81.3855845 170.890186 81.3855845"></polygon>
                <path d="M185.851705,78.4831316 L190.732364,78.4831316 L190.732364,74.252747 L185.851705,74.252747 L185.851705,78.4831316 Z M178.406693,78.4831316 L183.283705,78.4831316 L183.283705,74.252747 L178.406693,74.252747 L178.406693,78.4831316 Z M184.553114,103.069045 C189.648989,103.069045 191.564045,98.7217589 191.564045,94.4146575 C191.564045,89.8883652 189.648989,85.5483852 184.553114,85.5483852 C179.453591,85.5483852 177.542182,89.8883652 177.542182,94.4146575 C177.542182,98.7217589 179.453591,103.069045 184.553114,103.069045 L184.553114,103.069045 Z M184.553114,80.7663702 C192.541636,80.7663702 197.239909,86.7429757 197.239909,94.4146575 C197.239909,101.874455 192.541636,107.847407 184.553114,107.847407 C176.564591,107.847407 171.866318,101.874455 171.866318,94.4146575 C171.866318,86.7429757 176.564591,80.7663702 184.553114,80.7663702 L184.553114,80.7663702 Z" id="Fill-13" fill="#000000" fill-rule="evenodd"></path>
                <polygon id="Fill-15" fill="#000000" fill-rule="evenodd" points="201.000351 81.3848539 206.672567 81.3848539 206.672567 102.452753 219.253578 102.452753 219.253578 107.231115 201.000351 107.231115"></polygon>
                <polygon id="Fill-16" fill="#000000" fill-rule="evenodd" points="222.432573 81.3848539 228.108436 81.3848539 228.108436 92.0996362 238.194402 81.3848539 245.274641 81.3848539 235.192323 91.5918439 246.252232 107.231115 239.131868 107.231115 231.362209 95.6103439 228.108436 98.9055139 228.108436 107.231115 222.432573 107.231115"></polygon>
                <polygon id="Fill-17" fill="#000000" fill-rule="evenodd" points="249.503816 81.3848539 268.803941 81.3848539 268.803941 86.1632157 255.17968 86.1632157 255.17968 91.7014394 267.684089 91.7014394 267.684089 96.1181362 255.17968 96.1181362 255.17968 102.452753 269.095759 102.452753 269.095759 107.231115 249.503816 107.231115"></polygon>
                <path d="M279.577868,93.0757664 L285.793595,93.0757664 C288.325118,93.0757664 289.696664,91.9907714 289.696664,89.3823995 C289.696664,86.8872764 288.325118,85.8022814 285.793595,85.8022814 L279.577868,85.8022814 L279.577868,93.0757664 Z M273.902005,81.3855845 L287.818084,81.3855845 C292.443402,81.3855845 295.372527,84.6076909 295.372527,88.5129423 C295.372527,91.5560427 294.143243,93.8356282 291.287073,94.9936868 L291.287073,95.0667505 C294.070289,95.7900805 294.865493,98.5043945 295.04788,101.109113 C295.157311,102.742085 295.120834,105.785186 296.131255,107.228193 L290.455391,107.228193 C289.769618,105.60618 289.842573,103.10375 289.554402,101.043356 C289.153152,98.3253886 288.106255,97.1307982 285.253732,97.1307982 L279.577868,97.1307982 L279.577868,107.228193 L273.902005,107.228193 L273.902005,81.3855845 Z" id="Fill-18" fill="#000000" fill-rule="evenodd"></path>
                <path d="M304.228844,98.6519831 C304.228844,102.085974 306.902628,103.430345 309.941185,103.430345 C311.929197,103.430345 314.964106,102.845836 314.964106,100.208239 C314.964106,97.4208608 311.097515,96.9496004 307.303878,95.937669 C303.470117,94.9220845 299.603526,93.4388926 299.603526,88.5874672 C299.603526,83.3013131 304.589969,80.7660049 309.251765,80.7660049 C314.63581,80.7660049 319.589424,83.1223072 319.589424,89.0952595 L314.095947,89.0952595 C313.91356,85.9827485 311.710333,85.1827017 309.000072,85.1827017 C307.194447,85.1827017 305.097003,85.9425635 305.097003,88.1162067 C305.097003,90.1071908 306.326288,90.3592604 312.793708,92.0287645 C314.675935,92.4927185 320.461231,93.6909622 320.461231,99.5579722 C320.461231,104.299802 316.733253,107.847042 309.722322,107.847042 C304.013628,107.847042 298.662413,105.023132 298.735367,98.6519831 L304.228844,98.6519831 Z" id="Fill-19" fill="#000000" fill-rule="evenodd"></path>
                <path d="M58.7641568,122.879154 L54.4379523,122.879154 L54.4379523,127.931505 L57.9580091,127.931505 C58.8808841,127.931505 60.2378386,127.905932 61.1351795,127.653863 C62.2404409,127.332383 62.7438273,126.473885 62.7438273,125.348705 C62.7438273,122.904727 60.6281455,122.879154 58.7641568,122.879154 M63.8965091,129.33798 C62.2842136,130.324339 59.9131909,130.353564 58.0747364,130.353564 L54.4379523,130.353564 L54.4379523,132.585658 C54.4379523,133.02404 54.4853727,133.462422 54.5291455,133.878885 C54.6458727,134.825059 54.9668727,135.263441 55.7292477,135.811418 L50.1153955,135.811418 C50.6443159,135.464366 50.9653159,135.190377 51.1951227,134.591255 C51.3775091,134.083463 51.4468159,133.140942 51.4468159,132.585658 L51.4468159,123.690161 C51.4468159,122.283686 51.3775091,121.268101 50.1153955,120.435176 L58.9720773,120.435176 C60.6755659,120.435176 62.7219409,120.482667 64.1700886,121.494598 C65.4613841,122.393281 66.0340773,123.730346 66.0340773,125.275642 C66.0340773,126.981677 65.3665432,128.435644 63.8965091,129.33798" id="Fill-20" fill="#000000" fill-rule="evenodd"></path>
                <path d="M79.0812682,122.997152 C78.3663136,122.905823 77.6550068,122.858331 76.9400523,122.858331 L72.1104614,122.88025 L72.1104614,127.446728 L76.6664727,127.446728 C78.4356205,127.446728 81.1057568,127.516138 81.1057568,125.068506 C81.1057568,123.778933 80.2777227,123.157892 79.0812682,122.997152 L79.0812682,122.997152 Z M80.2558364,135.816167 C80.5294159,135.538525 80.6242568,135.282803 80.6242568,134.891912 C80.6242568,133.784998 79.3584955,132.013205 78.5997682,131.24969 C77.5163932,130.168348 76.2287455,129.890706 74.7550636,129.890706 L72.1104614,129.890706 L72.1104614,132.586754 C72.1104614,133.255287 72.1578818,133.97131 72.3876886,134.592351 C72.5919614,135.191473 72.9166091,135.469115 73.4199955,135.816167 L67.7842568,135.816167 C69.0281318,135.078224 69.119325,133.923819 69.119325,132.586754 L69.119325,123.640112 C69.119325,122.350539 69.0281318,121.130376 67.7842568,120.436272 L76.4585523,120.436272 C78.0672,120.436272 80.0698023,120.414353 81.6127909,120.922145 C83.3600523,121.499348 84.3960068,123.157892 84.3960068,124.977177 C84.3960068,125.828368 84.1443136,126.686866 83.6810523,127.377317 C82.8530182,128.59748 81.5653705,129.057781 80.1865295,129.404833 C82.4882455,130.467909 82.9478591,132.37487 84.3048136,134.29279 C84.8118477,135.008814 85.0854273,135.308375 85.8003818,135.816167 L80.2558364,135.816167 Z" id="Fill-21" fill="#000000" fill-rule="evenodd"></path>
                <path d="M87.2707807,135.815436 C87.7778148,135.464731 88.0988148,135.16517 88.3286216,134.595274 C88.536542,134.061909 88.6058489,133.141307 88.6058489,132.582371 L88.6058489,123.664954 C88.6058489,122.30597 88.4891216,121.220975 87.2707807,120.439194 L92.884633,120.439194 C92.3775989,120.808166 92.0784852,121.060235 91.8486784,121.659357 C91.640758,122.189068 91.5969852,123.106017 91.5969852,123.664954 L91.5969852,132.582371 C91.5969852,133.185146 91.640758,134.03999 91.8486784,134.595274 C92.0565989,135.190742 92.3775989,135.442812 92.884633,135.815436 L87.2707807,135.815436 Z" id="Fill-22" fill="#000000" fill-rule="evenodd"></path>
                <path d="M113.430092,121.380984 C112.809978,122.232176 112.302944,123.200269 111.843331,124.150096 L106.805819,134.525133 C106.710978,134.707792 106.528592,135.029272 106.528592,135.263075 C106.528592,135.467653 106.667206,135.650313 106.780285,135.811053 L101.881388,135.811053 C102.020001,135.675885 102.133081,135.511492 102.133081,135.306913 C102.133081,135.029272 101.994467,134.850266 101.881388,134.612809 L96.5885352,123.291598 C96.150808,122.352731 95.5306943,121.194672 94.8157398,120.43481 L100.269092,120.43481 C99.787592,120.781863 99.5322511,121.106996 99.5322511,121.706118 C99.5322511,122.301586 99.8313648,123.090673 100.086706,123.616732 L103.398842,130.72217 C103.858456,131.708529 104.20499,132.702195 104.504103,133.739698 C104.755797,132.702195 105.193524,131.708529 105.653138,130.744089 L108.965274,123.664223 C109.220615,123.112593 109.702115,122.191991 109.702115,121.57095 C109.702115,121.033932 109.403001,120.712452 108.990808,120.43481 L114.349319,120.43481 C114.006433,120.734371 113.681785,121.012013 113.430092,121.380984" id="Fill-23" fill="#000000" fill-rule="evenodd"></path>
                <path d="M121.208141,122.44406 L117.596891,129.980574 L124.775618,129.980574 L121.208141,122.44406 Z M126.085152,135.811053 C126.453573,135.445734 126.635959,135.237503 126.635959,134.704138 C126.635959,133.926011 126.176345,133.096738 125.855345,132.402634 L116.49163,132.402634 C116.123209,133.096738 115.824095,133.717779 115.824095,134.503213 C115.824095,135.124254 116.123209,135.489573 116.630243,135.811053 L111.384811,135.811053 C112.442652,134.59089 113.153959,133.231906 113.847027,131.781593 L118.468698,121.954534 C118.607311,121.684198 118.767811,121.384638 118.767811,121.085077 C118.767811,120.785516 118.676618,120.646695 118.446811,120.43481 L124.177391,120.43481 C123.96947,120.646695 123.878277,120.785516 123.878277,121.085077 C123.878277,121.406557 124.038777,121.706118 124.177391,122.005678 L128.685982,131.759674 C129.353516,133.206334 130.02105,134.642034 131.122664,135.811053 L126.085152,135.811053 Z" id="Fill-24" fill="#000000" fill-rule="evenodd"></path>
                <path d="M141.682105,122.857966 C140.96715,122.857966 140.27773,122.879885 139.566423,122.879885 L139.566423,132.608308 C139.566423,133.27684 139.610195,133.992864 139.840002,134.613905 C140.047923,135.191108 140.394457,135.44683 140.85407,135.815802 L135.240218,135.815802 C136.50598,135.030368 136.575286,133.992864 136.575286,132.608308 L136.575286,122.879885 L134.620105,122.879885 C132.595616,122.879885 131.534127,123.365758 129.834286,124.35577 C129.92548,124.078129 130.892127,121.268832 130.892127,120.943699 C130.892127,120.735467 130.800934,120.596646 130.684207,120.435906 L145.501275,120.435906 C145.384548,120.596646 145.293355,120.761039 145.293355,120.965618 C145.293355,121.22134 145.384548,121.498982 145.479389,121.725479 L146.420502,124.35577 C145.063548,123.340186 143.360059,122.857966 141.682105,122.857966" id="Fill-25" fill="#000000" fill-rule="evenodd"></path>
                <path d="M164.526726,135.237503 C164.526726,135.515145 164.687226,135.653966 164.895147,135.814706 L148.651817,135.814706 C149.964999,135.284994 150.056192,133.900438 150.056192,132.654703 L150.056192,123.664223 C150.056192,122.418488 149.964999,120.990094 148.651817,120.43481 L164.409999,120.43481 C164.275033,120.548059 164.180192,120.690533 164.180192,120.873192 C164.180192,121.106996 165.081181,123.963784 165.150488,124.172015 C164.596033,123.686142 164.088999,123.342743 163.355806,123.156431 C162.272431,122.882442 161.097863,122.882442 159.996249,122.882442 L153.047328,122.882442 L153.047328,126.637913 L160.134863,126.637913 C160.937363,126.637913 161.74351,126.637913 162.458465,126.268942 L161.353203,128.066307 C161.236476,128.274538 161.097863,128.530261 160.915476,128.691001 C160.455863,129.078238 159.281294,129.078238 158.730488,129.078238 L153.047328,129.078238 L153.047328,133.392646 L159.372488,133.392646 C161.69609,133.392646 163.607499,133.257478 165.679408,132.077501 C165.51526,132.493963 164.526726,134.799121 164.526726,135.237503" id="Fill-26" fill="#000000" fill-rule="evenodd"></path>
                <path d="M182.795639,122.579593 C179.228161,122.579593 176.882673,124.610762 176.882673,128.278557 C176.882673,131.869635 179.045775,133.667 182.540298,133.667 C186.085889,133.667 188.340184,131.661403 188.340184,128.044753 C188.340184,124.493861 186.315695,122.579593 182.795639,122.579593 M182.726332,136.136551 C177.827434,136.136551 173.566889,133.740064 173.566889,128.366233 C173.566889,125.783434 174.606491,123.456357 176.6784,121.892795 C178.447548,120.552077 180.72373,120.135615 182.886832,120.135615 C187.741957,120.135615 191.630434,122.740333 191.630434,127.927852 C191.630434,133.254191 187.811264,136.136551 182.726332,136.136551" id="Fill-27" fill="#000000" fill-rule="evenodd"></path>
                <path d="M203.939325,122.879154 L197.978939,122.879154 L197.978939,127.073007 L205.13578,127.073007 C205.920041,127.073007 206.492734,127.054741 207.182155,126.682117 L206.03312,128.618303 C205.547973,129.425656 205.29628,129.451228 204.424473,129.49872 C204.285859,129.49872 204.147245,129.516986 204.008632,129.516986 L197.978939,129.516986 L197.978939,132.658722 C197.978939,133.045959 198.026359,133.462422 198.07378,133.878885 C198.186859,134.825059 198.507859,135.237868 199.2447,135.811418 L193.656382,135.811418 C194.185302,135.464366 194.506302,135.190377 194.736109,134.591255 C194.922143,134.083463 194.99145,133.140942 194.99145,132.585658 L194.99145,123.730346 C194.99145,122.283686 194.922143,121.311939 193.656382,120.435176 L208.42603,120.435176 C208.174336,120.595916 208.057609,120.760309 208.057609,121.085442 C208.057609,121.355777 208.10503,121.655338 208.174336,121.93298 L208.655836,124.172381 C207.342655,123.043547 205.595393,122.879154 203.939325,122.879154" id="Fill-28" fill="#000000" fill-rule="evenodd"></path>
                <path d="M220.965092,122.879154 L215.004706,122.879154 L215.004706,127.073007 L222.157899,127.073007 C222.945808,127.073007 223.518501,127.054741 224.207922,126.682117 L223.058887,128.618303 C222.57374,129.425656 222.322047,129.451228 221.45024,129.49872 C221.311626,129.49872 221.173012,129.516986 221.034399,129.516986 L215.004706,129.516986 L215.004706,132.658722 C215.004706,133.045959 215.052126,133.462422 215.095899,133.878885 C215.212626,134.825059 215.533626,135.237868 216.270467,135.811418 L210.682149,135.811418 C211.211069,135.464366 211.532069,135.190377 211.761876,134.591255 C211.94791,134.083463 212.017217,133.140942 212.017217,132.585658 L212.017217,123.730346 C212.017217,122.283686 211.94791,121.311939 210.682149,120.435176 L225.451797,120.435176 C225.200103,120.595916 225.083376,120.760309 225.083376,121.085442 C225.083376,121.355777 225.130797,121.655338 225.200103,121.93298 L225.681603,124.172381 C224.372069,123.043547 222.62116,122.879154 220.965092,122.879154" id="Fill-29" fill="#000000" fill-rule="evenodd"></path>
                <path d="M228.141266,135.815436 C228.6483,135.464731 228.9693,135.16517 229.199107,134.595274 C229.407027,134.061909 229.472686,133.141307 229.472686,132.582371 L229.472686,123.664954 C229.472686,122.30597 229.359607,121.220975 228.141266,120.439194 L233.755118,120.439194 C233.248084,120.808166 232.94897,121.060235 232.719164,121.659357 C232.514891,122.189068 232.46747,123.106017 232.46747,123.664954 L232.46747,132.582371 C232.46747,133.185146 232.514891,134.03999 232.719164,134.595274 C232.927084,135.190742 233.248084,135.442812 233.755118,135.815436 L228.141266,135.815436 Z" id="Fill-30" fill="#000000" fill-rule="evenodd"></path>
                <path d="M250.435445,124.30974 C249.355718,123.064005 247.006582,122.581785 245.445355,122.581785 C241.877877,122.581785 239.532389,124.678712 239.532389,128.320934 C239.532389,131.963156 241.877877,133.672845 245.350514,133.672845 C247.283809,133.672845 249.425025,133.00066 251.081093,132.032567 L251.081093,135.696708 C250.968014,135.495783 250.803866,135.466558 250.574059,135.466558 C249.724139,135.466558 248.87057,135.696708 248.042536,135.835529 C246.962809,136.021841 245.861195,136.113171 244.774173,136.113171 C239.922695,136.113171 236.220252,133.672845 236.220252,128.481674 C236.220252,123.272237 239.900809,120.112234 244.960207,120.112234 C246.225968,120.112234 247.517264,120.276628 248.757491,120.459287 C249.425025,120.550616 250.114445,120.711356 250.78198,120.711356 C251.1504,120.711356 251.405741,120.689437 251.748627,120.550616 L250.435445,124.30974 Z" id="Fill-31" fill="#000000" fill-rule="evenodd"></path>
                <path d="M269.463085,135.237503 C269.463085,135.515145 269.623585,135.653966 269.831506,135.814706 L253.588176,135.814706 C254.901358,135.284994 254.992551,133.900438 254.992551,132.654703 L254.992551,123.664223 C254.992551,122.418488 254.901358,120.990094 253.588176,120.43481 L269.346358,120.43481 C269.207744,120.548059 269.116551,120.690533 269.116551,120.873192 C269.116551,121.106996 270.01754,123.963784 270.086847,124.172015 C269.532392,123.686142 269.025358,123.342743 268.292165,123.156431 C267.205142,122.882442 266.034222,122.882442 264.92896,122.882442 L257.983687,122.882442 L257.983687,126.637913 L265.067574,126.637913 C265.873722,126.637913 266.679869,126.637913 267.391176,126.268942 L266.289562,128.066307 C266.172835,128.274538 266.034222,128.530261 265.848187,128.691001 C265.388574,129.078238 264.217653,129.078238 263.663199,129.078238 L257.983687,129.078238 L257.983687,133.392646 L264.308847,133.392646 C266.636097,133.392646 268.543858,133.257478 270.612119,132.077501 C270.455267,132.493963 269.463085,134.799121 269.463085,135.237503" id="Fill-32" fill="#000000" fill-rule="evenodd"></path>
                <path d="M40.7567864,128.473272 L0.000729545454,128.473272 M319.596355,128.513457 L280.379639,128.473272" id="Stroke-33" stroke="#000000" stroke-width="0.404"></path>
                <path d="M189.487394,33.5833351 C189.487394,49.8217283 176.340985,62.995102 160.12319,62.995102 C143.905394,62.995102 130.755337,49.8217283 130.755337,33.5833351 C130.755337,17.3412888 143.905394,4.16791514 160.12319,4.16791514 C176.340985,4.16791514 189.487394,17.3412888 189.487394,33.5833351 Z" id="Stroke-34" stroke="#000000" stroke-width="0.283"></path>
                <path d="M159.233144,12.3455626 C159.065349,12.352869 158.64586,12.4149731 158.368633,12.7510658 C158.142474,13.0250545 158.069519,13.4049854 158.131531,13.8945117 L158.160712,14.0954367 L158.430644,14.0662113 C159.371758,13.7045463 159.48119,12.835089 159.492133,12.5793663 L159.503076,12.4040135 L159.233144,12.3455626 Z M160.790724,12.3346031 L160.717769,12.5793663 C160.728713,12.835089 160.841792,13.7045463 161.782906,14.0662113 L161.972588,14.1356217 L162.082019,13.8945117 C162.144031,13.4049854 162.067428,13.0250545 161.841269,12.7510658 C161.574985,12.4222795 161.188326,12.3565222 160.984053,12.3455626 L160.790724,12.3346031 Z M160.097656,13.7081995 C159.96269,13.7081995 159.805838,13.7958758 159.725588,13.9310435 C159.68911,13.9785349 159.306099,14.5374717 159.211258,14.7347435 C159.20761,14.7420499 159.032519,15.0781426 159.149247,15.4726863 C159.152894,15.4836458 159.605213,16.7147681 159.663576,16.893774 C159.718292,17.0399013 159.856906,17.3796472 160.097656,17.3942599 C160.36394,17.3796472 160.495258,17.0399013 160.549974,16.893774 C160.611985,16.7111149 161.05336,15.4836458 161.05336,15.4836458 C161.173735,15.0781426 161.00594,14.7420499 160.998644,14.723784 C160.903803,14.5374717 160.528088,13.9821881 160.477019,13.920084 C160.385826,13.7812631 160.221678,13.7081995 160.097656,13.7081995 L160.097656,13.7081995 Z M158.168008,17.1933349 L157.978326,17.2006413 C157.832417,17.2444795 157.79594,17.416179 157.788644,17.456364 C157.686508,18.0518326 157.577076,19.5605967 159.032519,20.6163663 L159.101826,20.6675108 L159.298803,20.6528981 C159.397292,20.6163663 159.452008,20.5031176 159.459303,20.4154413 C159.838667,18.5998099 158.620326,17.5294276 158.237315,17.2481326 L158.168008,17.1933349 Z M162.158622,17.1823754 L161.979883,17.2481326 C161.596872,17.5294276 160.374883,18.5925035 160.750599,20.4264008 C160.750599,20.470239 160.783428,20.6054067 160.914747,20.6528981 L160.998644,20.6821235 L161.173735,20.6163663 C162.621883,19.5679031 162.527042,18.0518326 162.421258,17.4490576 C162.413962,17.3540749 162.351951,17.2371731 162.231576,17.2006413 L162.158622,17.1823754 Z M163.821985,21.1424245 C163.745383,21.1424245 163.672428,21.1497308 163.592178,21.1570372 C163.446269,21.1826095 162.140383,21.3762281 161.414485,22.5123676 C160.841792,23.4000908 160.783428,24.6056408 161.250337,26.1034454 L161.286815,26.2130408 L161.480144,26.2751449 L161.494735,26.2751449 C161.702656,26.2751449 162.392076,26.2240004 162.665656,25.5372022 L162.731315,25.3910749 L162.552576,25.252254 C162.216985,25.0951672 162.005417,24.7481149 162.005417,24.3754904 C162.005417,23.8348195 162.446792,23.3927845 162.97936,23.3927845 C163.366019,23.3927845 163.716201,23.6302413 163.876701,23.9919063 L163.931417,24.1161145 L164.124747,24.1124613 C164.602599,23.9955595 165.025735,23.685039 165.251894,23.283189 C165.441576,22.9544026 165.478053,22.6036972 165.368622,22.2456854 C165.149758,21.5881126 164.525997,21.1424245 163.821985,21.1424245 L163.821985,21.1424245 Z M157.23419,23.3927845 C157.770406,23.3927845 158.211781,23.8348195 158.211781,24.3754904 C158.211781,24.7517681 157.992917,25.0951672 157.657326,25.252254 L157.52236,25.3216645 L157.547894,25.533549 C157.832417,26.2422663 158.551019,26.2751449 158.693281,26.2751449 C158.846485,26.2751449 158.926735,26.1874685 158.955917,26.1144049 C159.422826,24.6056408 159.371758,23.4000908 158.80636,22.5123676 C158.073167,21.3762281 156.767281,21.1826095 156.617724,21.1570372 C156.544769,21.1497308 156.468167,21.1424245 156.387917,21.1424245 C155.680258,21.1424245 155.060144,21.5881126 154.852224,22.2456854 C154.735497,22.6036972 154.771974,22.9544026 154.961656,23.2868422 C155.187815,23.685039 155.607303,23.9955595 156.088803,24.1124613 L156.227417,24.1453399 L156.336849,23.9919063 C156.493701,23.6302413 156.843883,23.3927845 157.23419,23.3927845 L157.23419,23.3927845 Z M160.097656,28.3720713 C159.510372,28.3720713 159.032519,28.8542913 159.032519,29.4534131 C159.032519,30.0488817 159.510372,30.5311017 160.097656,30.5311017 C160.703178,30.5311017 161.184678,30.0488817 161.184678,29.4534131 C161.184678,28.8542913 160.703178,28.3720713 160.097656,28.3720713 L160.097656,28.3720713 Z M149.387928,28.1565335 C149.25661,28.1565335 149.121644,28.1821058 148.993974,28.225944 C148.264428,28.4597476 147.797519,29.2196095 147.910599,29.994084 C147.928838,30.1036795 148.289963,32.6572535 151.014815,32.6572535 C151.561974,32.6572535 152.182088,32.5476581 152.845974,32.3430799 L152.959053,32.3102013 L153.017417,32.1129295 C153.02836,31.7841431 152.882451,31.1667554 152.280576,30.918339 L152.134667,30.8635413 L151.999701,31.0352408 C151.839201,31.3713335 151.492667,31.5941776 151.113303,31.5941776 C150.584383,31.5941776 150.13936,31.1521426 150.13936,30.6114717 C150.13936,30.2205813 150.372815,29.8662226 150.73394,29.7091358 L150.865258,29.6579913 L150.857963,29.4643726 C150.675576,28.708164 150.05911,28.1565335 149.387928,28.1565335 L149.387928,28.1565335 Z M168.14819,30.8927667 L167.932974,30.918339 C167.196133,31.2215531 167.196133,32.0215999 167.196133,32.1092763 L167.203428,32.2261781 L167.371224,32.3430799 C168.031463,32.5476581 168.651576,32.6572535 169.195088,32.6572535 C171.930883,32.6572535 172.28836,30.1036795 172.302951,29.994084 C172.416031,29.2196095 171.952769,28.4560945 171.215928,28.225944 C171.088258,28.1821058 170.95694,28.1565335 170.825622,28.1565335 C170.158088,28.1565335 169.534326,28.708164 169.355588,29.4643726 L169.322758,29.6031935 L169.472315,29.7091358 C169.837088,29.8662226 170.07419,30.2205813 170.07419,30.6114717 C170.07419,31.1521426 169.632815,31.5941776 169.089303,31.5941776 C168.717235,31.5941776 168.363406,31.3713335 168.210201,31.0352408 L168.14819,30.8927667 Z M140.341565,31.4845822 C139.473406,31.4845822 139.134167,32.0690913 139.108633,32.6134154 L139.101337,32.7960745 L139.342087,32.8764445 C139.597428,32.8618317 140.46194,32.7558895 140.819417,31.8133685 L140.896019,31.6160967 L140.651622,31.5065013 C140.538542,31.4955417 140.432758,31.4845822 140.341565,31.4845822 L140.341565,31.4845822 Z M179.879281,31.4845822 C179.777144,31.4845822 179.67136,31.4955417 179.561928,31.5065013 L179.357656,31.5357267 L179.394133,31.8133685 C179.747962,32.7522363 180.612474,32.8618317 180.871462,32.8764445 L181.053849,32.8837508 L181.104917,32.6134154 C181.075735,32.0690913 180.736497,31.4845822 179.879281,31.4845822 L179.879281,31.4845822 Z M144.831917,31.1156108 C144.569281,31.1156108 144.354065,31.1448363 144.20086,31.1740617 C144.164383,31.1740617 143.99294,31.2069404 143.956463,31.3567208 C143.927281,31.4443972 143.945519,31.5357267 144.000235,31.6124435 C144.292053,32.0106404 145.112792,32.9129763 146.502576,32.9129763 C146.717792,32.9129763 146.951247,32.887404 147.177406,32.8399126 C147.257656,32.8326063 147.367088,32.7814617 147.403565,32.6682131 L147.436394,32.5878431 L147.367088,32.4088372 C146.586474,31.3384549 145.561463,31.1156108 144.831917,31.1156108 L144.831917,31.1156108 Z M175.381633,31.1156108 C174.655735,31.1156108 173.623428,31.3384549 172.842815,32.4088372 L172.799042,32.4745945 L172.80269,32.6572535 C172.835519,32.7741554 172.952247,32.8289531 173.039792,32.8435658 C173.262303,32.887404 173.49211,32.9129763 173.710974,32.9129763 C175.078872,32.9129763 175.917849,32.0106404 176.209667,31.6160967 L176.264383,31.5539926 L176.257088,31.3567208 C176.209667,31.2069404 176.049167,31.1740617 176.001747,31.1704085 C175.863133,31.1448363 175.640622,31.1156108 175.381633,31.1156108 L175.381633,31.1156108 Z M140.684451,33.8701099 C140.680803,33.8701099 141.293622,34.2829195 141.494247,34.3779022 C141.50519,34.3852085 141.694872,34.4911508 141.95386,34.4911508 C142.048701,34.4911508 142.139894,34.4728849 142.231087,34.4509658 C142.238383,34.4473126 143.464019,33.9943181 143.650053,33.932214 C143.792315,33.8847226 144.142497,33.7385954 144.142497,33.490179 C144.142497,33.2344563 143.792315,33.0919822 143.650053,33.0408376 C143.464019,32.9823867 142.238383,32.5330454 142.238383,32.5330454 C142.139894,32.5038199 142.048701,32.4928604 141.950212,32.4928604 C141.694872,32.4928604 141.508837,32.5841899 141.486951,32.5951495 C141.293622,32.686479 140.677156,33.1175545 140.677156,33.1175545 C140.553133,33.1906181 140.469235,33.3403985 140.469235,33.490179 C140.469235,33.6326531 140.556781,33.7860867 140.684451,33.8701099 L140.684451,33.8701099 Z M178.25969,32.4928604 C178.168497,32.4928604 178.070008,32.5038199 177.982463,32.5293922 C177.971519,32.5330454 176.742235,32.9823867 176.559849,33.0408376 C176.41394,33.0956354 176.071053,33.2417626 176.071053,33.490179 C176.071053,33.7385954 176.41394,33.8847226 176.559849,33.932214 C176.742235,33.9943181 177.971519,34.4473126 177.971519,34.4473126 C178.070008,34.4728849 178.161201,34.4911508 178.25969,34.4911508 C178.518678,34.4911508 178.704713,34.3852085 178.726599,34.3779022 C178.912633,34.2829195 179.470735,33.9066417 179.536394,33.8628035 C179.675008,33.7751272 179.747963,33.610734 179.747963,33.490179 C179.747963,33.3367454 179.656769,33.1869649 179.529099,33.1102481 C179.470735,33.0700631 178.912633,32.686479 178.719303,32.5914963 C178.704713,32.5841899 178.518678,32.4928604 178.25969,32.4928604 L178.25969,32.4928604 Z M156.187292,32.4088372 C155.59636,32.4088372 155.107565,32.8910572 155.107565,33.490179 C155.107565,34.0783413 155.59636,34.5642145 156.187292,34.5642145 C156.781872,34.5642145 157.267019,34.0783413 157.267019,33.490179 C157.267019,32.8910572 156.781872,32.4088372 156.187292,32.4088372 L156.187292,32.4088372 Z M163.978838,32.4088372 C163.384258,32.4088372 162.906406,32.8910572 162.906406,33.490179 C162.906406,34.0783413 163.384258,34.5642145 163.978838,34.5642145 C164.573417,34.5642145 165.06586,34.0783413 165.06586,33.490179 C165.06586,32.8910572 164.573417,32.4088372 163.978838,32.4088372 L163.978838,32.4088372 Z M160.097656,31.8937385 C159.225849,31.8937385 158.514542,32.606109 158.514542,33.490179 C158.514542,34.3632895 159.225849,35.0793131 160.097656,35.0793131 C160.991349,35.0793131 161.702656,34.3632895 161.702656,33.490179 C161.702656,32.606109 160.991349,31.8937385 160.097656,31.8937385 L160.097656,31.8937385 Z M180.87511,34.1002604 C180.692724,34.1039135 179.762553,34.1879367 179.394133,35.1596831 L179.321178,35.3569549 L179.561928,35.4628972 C179.675008,35.4775099 179.777144,35.4848163 179.879281,35.4848163 C180.736497,35.4848163 181.075735,34.9039604 181.104917,34.3596363 L181.108565,34.1842835 L180.87511,34.1002604 Z M139.159701,34.092954 L139.108633,34.3596363 C139.134167,34.9112667 139.473406,35.4884695 140.341565,35.4884695 C140.432758,35.4884695 140.538542,35.4811631 140.651622,35.4628972 L140.852247,35.4373249 L140.819417,35.1596831 C140.450997,34.1879367 139.517178,34.1039135 139.33844,34.1002604 L139.159701,34.092954 Z M146.502576,34.0564222 C145.112792,34.0564222 144.292053,34.9660645 144.000235,35.3642613 L143.952815,35.4227122 L143.956463,35.6126776 C143.989292,35.7332326 144.113315,35.7916835 144.211803,35.8099495 C144.354065,35.8355217 144.569281,35.8647472 144.831917,35.8647472 C145.561463,35.8647472 146.586474,35.6345967 147.367088,34.5605613 L147.414508,34.4911508 L147.403565,34.3048385 C147.356144,34.173324 147.217531,34.1440985 147.177406,34.133139 C146.951247,34.0783413 146.717792,34.0564222 146.502576,34.0564222 L146.502576,34.0564222 Z M173.710974,34.0564222 C173.49211,34.0564222 173.262303,34.0783413 173.032497,34.133139 C172.944951,34.1477517 172.835519,34.1988963 172.80269,34.3194513 L172.788099,34.3888617 L172.842815,34.5605613 C173.623428,35.6345967 174.655735,35.8647472 175.381633,35.8647472 C175.640622,35.8647472 175.863133,35.8355217 176.009042,35.7989899 C176.103883,35.7916835 176.224258,35.7332326 176.257087,35.6126776 L176.271678,35.539614 L176.209667,35.3569549 C175.917849,34.9660645 175.078872,34.0564222 173.710974,34.0564222 L173.710974,34.0564222 Z M160.097656,36.5588517 C159.510372,36.5588517 159.032519,37.0483781 159.032519,37.6401935 C159.032519,38.232009 159.510372,38.7215354 160.097656,38.7215354 C160.695883,38.7215354 161.181031,38.232009 161.181031,37.6401935 C161.181031,37.0483781 160.695883,36.5588517 160.097656,36.5588517 L160.097656,36.5588517 Z M151.014815,34.3231045 C148.279019,34.3231045 147.92519,36.8730254 147.910599,36.9789676 C147.797519,37.7534422 148.264428,38.513304 148.993974,38.754414 C149.121644,38.7909458 149.25661,38.8128649 149.387928,38.8128649 C150.05911,38.8128649 150.675576,38.2685408 150.857963,37.5159854 L150.890792,37.3771645 L150.73394,37.2639158 C150.372815,37.1031758 150.13936,36.7597767 150.13936,36.3615799 C150.13936,35.8282154 150.584383,35.3825272 151.113303,35.3825272 C151.492667,35.3825272 151.839201,35.6017181 151.999701,35.9378108 L152.069008,36.0802849 L152.280576,36.0547126 C152.882451,35.8136026 153.02836,35.1889085 153.017417,34.8601222 L153.013769,34.7505267 L152.845974,34.6336249 C152.182088,34.4253935 151.561974,34.3231045 151.014815,34.3231045 L151.014815,34.3231045 Z M169.089303,35.3825272 C169.632815,35.3825272 170.07419,35.8282154 170.07419,36.3615799 C170.07419,36.7597767 169.837088,37.1104822 169.472315,37.2639158 L169.355588,37.3150604 L169.355588,37.5159854 C169.534326,38.2685408 170.150792,38.8128649 170.825622,38.8128649 C170.95694,38.8128649 171.088258,38.7909458 171.215928,38.754414 C171.952769,38.5169572 172.416031,37.7534422 172.302951,36.9789676 C172.292008,36.8730254 171.934531,34.3231045 169.195088,34.3231045 C168.651576,34.3231045 168.031463,34.4253935 167.371224,34.6336249 L167.258144,34.6701567 L167.196133,34.8637754 C167.196133,34.9551049 167.196133,35.7514985 167.932974,36.0547126 L168.078883,36.1095104 L168.210201,35.9378108 C168.370701,35.6017181 168.717235,35.3825272 169.089303,35.3825272 L169.089303,35.3825272 Z M156.282133,42.853284 L156.088803,42.8569372 C155.607303,42.973839 155.187815,43.2880126 154.958008,43.6862095 C154.771974,44.0113426 154.735497,44.3730076 154.852224,44.7200599 C155.060144,45.3776326 155.680258,45.8233208 156.387917,45.8233208 C156.468167,45.8233208 156.544769,45.8160145 156.617724,45.8087081 C156.767281,45.7904422 158.073167,45.5931704 158.80636,44.4570308 C159.371758,43.5729608 159.422826,42.3637576 158.96686,40.8732595 L158.926735,40.7563576 L158.733406,40.6979067 L158.715167,40.6979067 C158.514542,40.6979067 157.817826,40.7453981 157.547894,41.4321963 L157.489531,41.5783235 L157.657326,41.7098381 C157.992917,41.8742313 158.211781,42.2212835 158.211781,42.5939081 C158.211781,43.134579 157.770406,43.5729608 157.23419,43.5729608 C156.843883,43.5729608 156.486406,43.3391572 156.336849,42.9811454 L156.282133,42.853284 Z M161.396247,40.6979067 L161.253985,40.8732595 C160.783428,42.3637576 160.841792,43.5656545 161.414485,44.4570308 C162.140383,45.5931704 163.446269,45.7904422 163.592178,45.8087081 C163.672428,45.8160145 163.745383,45.8233208 163.821985,45.8233208 C164.525997,45.8233208 165.149758,45.3776326 165.368622,44.7200599 C165.478053,44.3730076 165.441576,44.0113426 165.251894,43.6862095 C165.025735,43.2880126 164.602599,42.973839 164.124747,42.8569372 L163.989781,42.8240585 L163.876701,42.9811454 C163.723497,43.3391572 163.366019,43.5729608 162.97936,43.5729608 C162.446792,43.5729608 162.005417,43.134579 162.005417,42.5939081 C162.005417,42.2212835 162.216985,41.8742313 162.552576,41.7098381 L162.69119,41.6440808 L162.665656,41.4321963 C162.381133,40.7344385 161.658883,40.6979067 161.516622,40.6979067 L161.396247,40.6979067 Z M161.108076,46.3018876 L160.929337,46.3201535 C160.783428,46.3566854 160.750599,46.5028126 160.750599,46.5393445 C160.374883,48.3622822 161.596872,49.4363176 161.979883,49.724919 L162.045542,49.7687572 L162.231576,49.765104 C162.351951,49.7322254 162.413962,49.6116704 162.424906,49.5130345 C162.527042,48.921219 162.621883,47.4051485 161.173735,46.3566854 L161.108076,46.3018876 Z M159.20761,46.2909281 L159.032519,46.3566854 C157.577076,47.4161081 157.686508,48.9248722 157.792292,49.523994 C157.79594,49.5605258 157.832417,49.7285722 157.978326,49.765104 C158.007508,49.7687572 158.033042,49.7687572 158.051281,49.7687572 C158.146122,49.7687572 158.193542,49.7541445 158.233667,49.7285722 C158.620326,49.4363176 159.838667,48.358629 159.459303,46.5356913 C159.44836,46.4553213 159.397292,46.3530322 159.284213,46.3201535 L159.20761,46.2909281 Z M160.097656,49.5787917 C159.84961,49.5824449 159.718292,49.9294972 159.663576,50.0756245 C159.605213,50.2509772 159.152894,51.4894058 159.152894,51.4894058 C159.032519,51.8876026 159.20761,52.2236954 159.218553,52.2383081 C159.309747,52.4355799 159.729235,53.0529676 159.729235,53.0529676 C159.805838,53.1735226 159.96269,53.261199 160.097656,53.261199 C160.221678,53.261199 160.385826,53.1954417 160.484315,53.0420081 C160.528088,52.9835572 160.903803,52.4355799 160.998644,52.2310017 C161.00594,52.2236954 161.173735,51.8876026 161.064303,51.493059 C161.05336,51.4894058 160.611985,50.2546304 160.557269,50.0792776 C160.495258,49.925844 160.36394,49.5824449 160.097656,49.5787917 L160.097656,49.5787917 Z M162.052838,52.8776149 L161.782906,52.9104935 C160.841792,53.2685054 160.728713,54.1343095 160.717769,54.3973385 L160.706826,54.5726913 L160.984053,54.6238358 C161.188326,54.6128763 161.574985,54.547119 161.841269,54.225639 C162.067428,53.9553035 162.144031,53.5644131 162.082019,53.0785399 L162.052838,52.8776149 Z M158.237315,52.8301235 L158.131531,53.0785399 C158.069519,53.5644131 158.142474,53.9553035 158.368633,54.225639 C158.64586,54.5617317 159.065349,54.6165295 159.233144,54.6238358 L159.415531,54.6311422 L159.492133,54.3973385 C159.48119,54.1343095 159.371758,53.2685054 158.430644,52.9104935 L158.237315,52.8301235 Z M160.097656,60.9109617 C160.050235,60.9109617 160.01011,60.8707767 160.01011,60.8232854 C160.01011,59.5812035 159.149247,57.8861272 159.109122,57.8130635 L159.499428,57.2285545 L159.543201,57.159144 L159.532258,56.9837913 C159.484838,56.8815022 159.386349,56.8230513 159.225849,56.7938258 L159.090883,56.7755599 C158.959565,56.7609472 158.631269,56.6951899 158.521838,56.4613863 C158.386872,56.2020104 158.481713,55.9389813 158.551019,55.7197904 C158.569258,55.6576863 158.591144,55.6065417 158.602088,55.5627035 C158.631269,55.4202295 158.602088,55.2960213 158.525485,55.2119981 C158.441588,55.1243217 158.343099,55.0950963 158.262849,55.0804835 C157.657326,54.9599285 157.566133,54.3096622 157.562485,54.2804367 C157.551542,54.0393267 157.347269,53.9516504 157.237838,53.9333845 C156.730803,53.8822399 156.39886,53.7178467 156.260247,53.4548176 C156.026792,53.0127826 156.336849,52.3661695 156.435338,52.176204 C156.449928,52.1433254 156.497349,52.0191172 156.43169,51.8583772 C156.231065,51.3615445 156.657849,50.930469 156.851178,50.7733822 C156.91319,50.7185845 156.975201,50.6126422 156.953315,50.4738213 C156.854826,49.7395317 156.778224,49.1550226 156.763633,48.9467913 C156.759985,48.800664 156.643258,48.7129876 156.526531,48.7056813 C156.128928,48.6472304 152.565099,48.0079235 152.565099,44.3583949 C152.565099,43.5875735 152.882451,42.7802204 153.440553,42.1555263 C153.903815,41.6440808 154.378019,41.3518263 155.03461,41.1910863 C155.030963,41.1910863 155.373849,41.125329 155.75686,41.125329 C156.037735,41.125329 156.256599,41.1618608 156.417099,41.2203117 C156.417099,41.2203117 156.504644,41.2678031 156.628667,41.2678031 C156.807406,41.2678031 156.967906,41.1728204 157.077338,41.0011208 C157.23419,40.7527045 157.091928,40.5115945 156.997088,40.4202649 C156.730803,40.1937676 156.606781,39.919779 156.621372,39.5836863 C156.646906,39.1818363 157.033565,38.8968881 157.398338,38.8603563 L157.485883,38.8457435 L157.591667,38.7251885 C157.620849,38.6776972 157.642735,38.6046335 157.606258,38.5023445 C157.598963,38.4694658 157.077338,37.1908522 157.799588,36.1606549 L157.883485,36.0364467 L157.719338,35.8830131 L157.620849,35.7989899 L157.485883,35.8428281 C157.139349,36.0693254 156.730803,36.182574 156.27119,36.182574 C155.687553,36.182574 155.22794,35.9962617 155.220644,35.9962617 C155.19511,35.9926085 155.180519,35.9926085 155.162281,35.9926085 C154.958008,35.9926085 154.877758,36.0839381 154.855872,36.1752676 C154.812099,36.5515454 154.545815,36.9497422 154.126326,36.9789676 C153.677656,36.9789676 153.433258,36.7780426 153.298292,36.6136495 C153.272758,36.5880772 153.137792,36.4565626 152.944463,36.4565626 C152.860565,36.4565626 152.78761,36.4748285 152.714656,36.5223199 C152.397303,36.7268981 152.411894,37.0374185 152.49944,37.1981585 C152.689122,37.6803785 152.521326,38.5644485 152.521326,38.5754081 C152.357178,39.2256745 152.069008,39.7042413 151.558326,40.160889 C150.934565,40.723479 150.135713,41.0376526 149.358747,41.0376526 C145.718315,41.0376526 145.079963,37.468494 145.014303,37.0629908 C145.007008,36.9607017 144.926758,36.8437999 144.773553,36.8328404 C144.569281,36.8182276 143.985644,36.745164 143.252451,36.6392217 L143.241508,36.6392217 C143.044531,36.6392217 142.967928,36.7378576 142.94969,36.7597767 C142.840258,36.8912913 142.51561,37.2200776 142.132599,37.2200776 C142.045053,37.2200776 141.95386,37.2054649 141.869963,37.1616267 L141.833485,37.1543204 L141.698519,37.1360545 C141.629213,37.1360545 141.574497,37.1543204 141.559906,37.1579735 C141.399406,37.2456499 141.02369,37.4210026 140.655269,37.4210026 C140.151883,37.4210026 139.871008,37.0812567 139.801701,36.3615799 C139.783463,36.2446781 139.688622,36.0400999 139.433281,36.0364467 C139.422338,36.0327935 138.769394,35.9378108 138.652667,35.3423422 C138.638076,35.2546658 138.608894,35.1596831 138.528644,35.0756599 C138.452042,35.0099026 138.379088,34.977024 138.287894,34.977024 C138.123747,35.0062495 138.072678,35.0208622 138.010667,35.0464345 C137.879349,35.0902726 137.718849,35.1414172 137.554701,35.1414172 C137.448917,35.1414172 137.357724,35.1194981 137.273826,35.0793131 C137.047667,34.9587581 136.97836,34.6409313 136.960122,34.5021104 L136.934588,34.3632895 C136.905406,34.0783413 136.730315,34.0454626 136.661008,34.0454626 L136.60994,34.0454626 L136.511451,34.092954 L135.916872,34.4911508 C135.902281,34.4765381 134.180553,33.5778554 132.922088,33.5778554 C132.867372,33.5778554 132.827247,33.5413235 132.827247,33.490179 C132.827247,33.4353813 132.867372,33.3988495 132.922088,33.3988495 C134.180553,33.3988495 135.902281,32.5001667 135.924167,32.4928604 L136.511451,32.8800976 L136.544281,32.9056699 L136.661008,32.9348954 C136.730315,32.9348954 136.905406,32.8947104 136.934588,32.606109 L136.960122,32.4745945 C136.97836,32.3394267 137.047667,32.0215999 137.270178,31.8973917 C137.357724,31.8572067 137.448917,31.8279813 137.554701,31.8279813 C137.722497,31.8279813 137.882997,31.8900854 138.017963,31.9339235 C138.072678,31.9521895 138.123747,31.9704554 138.171167,31.9777617 C138.207644,31.9814149 138.240474,31.9814149 138.269656,31.9814149 C138.400974,31.9814149 138.462985,31.9558426 138.514053,31.9156576 C138.608894,31.8170217 138.638076,31.722039 138.652667,31.6307095 C138.769394,31.038894 139.422338,30.9439113 139.447872,30.9402581 C139.688622,30.9292985 139.783463,30.7210672 139.801701,30.6187781 C139.871008,29.8991013 140.151883,29.5483958 140.655269,29.5483958 C141.005451,29.5483958 141.366576,29.7164422 141.55261,29.8077717 L141.581792,29.8260376 L141.698519,29.8369972 C141.756883,29.8369972 141.811599,29.8296908 141.869963,29.8041185 C141.95386,29.7748931 142.045053,29.7602804 142.132599,29.7602804 C142.533849,29.7602804 142.862144,30.1182922 142.956985,30.2315408 C142.967928,30.2388472 143.048178,30.3374831 143.205031,30.3374831 C143.985644,30.2315408 144.569281,30.154824 144.777201,30.1402113 C144.926758,30.1329049 145.007008,30.0086967 145.014303,29.9027545 C145.079963,29.5009045 145.72561,25.935399 149.358747,25.935399 C150.135713,25.935399 150.934565,26.2532258 151.558326,26.8085095 C152.069008,27.2688104 152.357178,27.7473772 152.521326,28.4086031 C152.521326,28.4086031 152.689122,29.2999795 152.492144,29.7895058 C152.411894,29.9429395 152.397303,30.2534599 152.718303,30.4543849 C152.78761,30.5018763 152.860565,30.5237954 152.944463,30.5237954 C153.137792,30.5237954 153.272758,30.3886276 153.287349,30.3740149 C153.433258,30.1986622 153.677656,29.994084 154.057019,29.994084 C154.545815,30.0160031 154.812099,30.4178531 154.852224,30.7758649 C154.877758,30.8964199 154.972599,30.998709 155.11486,30.998709 C155.22794,30.9840963 155.687553,30.7941308 156.27119,30.7941308 C156.730803,30.7941308 157.139349,30.9000731 157.485883,31.1375299 L157.588019,31.199634 L157.737576,31.0717726 L157.847008,30.9767899 L157.799588,30.8160499 C157.077338,29.7821995 157.598963,28.4889731 157.606258,28.4816667 L157.639088,28.4049499 L157.591667,28.2478631 C157.551542,28.1638399 157.471292,28.1273081 157.409281,28.1126954 C157.037213,28.0725104 156.646906,27.8021749 156.621372,27.3857122 C156.606781,27.0496195 156.730803,26.7719776 156.986144,26.5600931 C157.091928,26.457804 157.23419,26.2203472 157.077338,25.9719308 C156.967906,25.8002313 156.807406,25.7015954 156.628667,25.7015954 C156.504644,25.7015954 156.417099,25.7454335 156.39886,25.7527399 C156.256599,25.814844 156.041383,25.8440695 155.764156,25.8440695 C155.373849,25.8440695 155.030963,25.7783122 155.027315,25.7783122 C154.378019,25.6175722 153.903815,25.3253176 153.440553,24.810219 C152.893394,24.2001376 152.565099,23.3818249 152.565099,22.6110035 C152.565099,18.9505154 156.128928,18.3258213 156.530178,18.2637172 C156.643258,18.2564108 156.759985,18.1687345 156.763633,18.0116476 C156.778224,17.8143758 156.854826,17.2262135 156.953315,16.4992304 C156.975201,16.3604095 156.91319,16.2435076 156.843883,16.1960163 C156.657849,16.0462358 156.231065,15.6151604 156.43169,15.1037149 C156.497349,14.9466281 156.449928,14.8260731 156.442633,14.804154 C156.333201,14.5995758 156.026792,13.9456563 156.260247,13.5072745 C156.402508,13.2442454 156.734451,13.0871585 157.23419,13.036014 C157.347269,13.0250545 157.551542,12.9300717 157.562485,12.6780022 C157.566133,12.6597363 157.657326,12.0131231 158.262849,11.8889149 C158.343099,11.870649 158.441588,11.8450767 158.525485,11.7610535 C158.602088,11.669724 158.631269,11.549169 158.602088,11.4066949 C158.591144,11.3628567 158.569258,11.308059 158.551019,11.2459549 C158.481713,11.0304172 158.386872,10.7600817 158.521838,10.5080122 C158.64586,10.263249 159.017928,10.2011449 159.090883,10.1938385 L159.225849,10.1719195 C159.386349,10.1536535 159.484838,10.0952026 159.532258,9.98926036 L159.557792,9.90889036 L159.499428,9.73719082 L159.105474,9.14537536 C159.145599,9.08692445 160.01011,7.39915445 160.01011,6.14611309 C160.01011,6.09496855 160.050235,6.05478355 160.097656,6.05478355 C160.148724,6.05478355 160.196144,6.09496855 160.196144,6.15341945 C160.196144,7.39915445 161.067951,9.08692445 161.104428,9.15633491 L160.706826,9.73719082 L160.663053,9.81756082 L160.68494,9.98926036 C160.728713,10.0952026 160.827201,10.1536535 160.991349,10.1719195 L161.119019,10.1938385 C161.195622,10.2011449 161.56769,10.263249 161.691713,10.5080122 C161.826678,10.7600817 161.735485,11.0304172 161.658883,11.2459549 C161.640644,11.308059 161.622406,11.3628567 161.604167,11.4066949 C161.56769,11.589354 161.629701,11.6989495 161.691713,11.7610535 C161.768315,11.8450767 161.866803,11.870649 161.954349,11.8889149 C162.552576,12.0131231 162.647417,12.6597363 162.651065,12.6926149 C162.662008,12.9264185 162.862633,13.0250545 162.975713,13.036014 C163.482747,13.0871585 163.803747,13.2442454 163.956951,13.5072745 C164.18311,13.9456563 163.880349,14.5995758 163.778213,14.7895413 C163.763622,14.8260731 163.716201,14.9466281 163.78186,15.1146745 C163.971542,15.607854 163.555701,16.0425826 163.362372,16.2069758 C163.304008,16.2398545 163.238349,16.3531031 163.249292,16.4955772 C163.355076,17.2262135 163.431678,17.8143758 163.449917,18.0262604 C163.457213,18.1723876 163.581235,18.2564108 163.690667,18.2637172 C164.084622,18.3258213 167.644803,18.9505154 167.644803,22.6110035 C167.644803,23.3818249 167.323803,24.2001376 166.772997,24.810219 C166.306088,25.3253176 165.828235,25.6175722 165.175292,25.7783122 C165.186235,25.7783122 164.832406,25.8440695 164.449394,25.8440695 C164.168519,25.8440695 163.956951,25.814844 163.785508,25.7454335 C163.785508,25.7454335 163.705258,25.7015954 163.584883,25.7015954 C163.406144,25.7015954 163.249292,25.8002313 163.136213,25.9719308 C162.97936,26.2203472 163.121622,26.457804 163.22011,26.5491335 C163.406144,26.7062204 163.614065,26.9619431 163.592178,27.3857122 C163.570292,27.8021749 163.169042,28.0725104 162.815213,28.1126954 L162.731315,28.1200017 L162.618235,28.2478631 C162.592701,28.2880481 162.567167,28.3647649 162.592701,28.4634008 C162.61094,28.4889731 163.143508,29.7821995 162.413963,30.8160499 L162.322769,30.9402581 L162.479622,31.0681195 L162.567167,31.1448363 L162.731315,31.1375299 C163.077849,30.9000731 163.482747,30.7941308 163.946008,30.7941308 C164.525997,30.7941308 164.989258,30.9840963 164.996553,30.9840963 L165.058565,30.9840963 C165.255542,30.9840963 165.33944,30.8891135 165.364974,30.797784 C165.401451,30.4178531 165.671383,30.0160031 166.090872,29.994084 C166.535894,29.994084 166.772997,30.1986622 166.91161,30.3667085 C166.937144,30.3886276 167.07211,30.5237954 167.269088,30.5237954 C167.34569,30.5237954 167.422292,30.5018763 167.491599,30.4543849 C167.812599,30.2534599 167.798008,29.9429395 167.717758,29.7785463 C167.524428,29.2999795 167.695872,28.4086031 167.695872,28.4049499 C167.852724,27.7546835 168.14819,27.2688104 168.655224,26.8085095 C169.27169,26.2678385 170.088781,25.935399 170.854803,25.935399 C174.509826,25.935399 175.133588,29.5009045 175.195599,29.9064076 C175.21019,30.0086967 175.283144,30.1329049 175.436349,30.1402113 C175.644269,30.154824 176.227906,30.2315408 176.961099,30.3338299 L176.968394,30.3338299 C177.13619,30.3338299 177.21644,30.2717258 177.260213,30.2242345 C177.34411,30.1182922 177.676053,29.7602804 178.084599,29.7602804 C178.172144,29.7602804 178.256042,29.7748931 178.343588,29.8041185 L178.372769,29.8150781 L178.511383,29.8369972 C178.584338,29.8369972 178.639053,29.8223845 178.657292,29.8114249 C178.814144,29.7310549 179.182565,29.5483958 179.561928,29.5483958 C180.061667,29.5483958 180.342542,29.8991013 180.411849,30.6114717 C180.42644,30.7210672 180.521281,30.9292985 180.780269,30.9402581 C180.787565,30.9439113 181.440508,31.038894 181.557235,31.6307095 C181.568178,31.7110795 181.604656,31.8133685 181.692201,31.9083513 C181.754213,31.963149 181.827167,31.9923745 181.925656,31.9923745 C182.086156,31.9704554 182.129928,31.9521895 182.195588,31.9339235 C182.330553,31.8900854 182.491053,31.8279813 182.658849,31.8279813 C182.764633,31.8279813 182.855826,31.8572067 182.943372,31.8973917 C183.184122,32.0289063 183.238838,32.3978776 183.249781,32.4745945 L183.268019,32.606109 C183.31544,32.8947104 183.486883,32.9348954 183.545247,32.9348954 L183.599963,32.9348954 L183.705747,32.8800976 L184.300326,32.4892072 C184.307622,32.5001667 186.032997,33.3988495 187.29511,33.3988495 C187.349826,33.3988495 187.382656,33.4353813 187.382656,33.490179 C187.382656,33.5413235 187.342531,33.5778554 187.291463,33.5778554 C186.032997,33.5778554 184.307622,34.4765381 184.285735,34.4911508 L183.705747,34.092954 L183.669269,34.0673817 L183.55619,34.0454626 C183.486883,34.0454626 183.31544,34.0783413 183.268019,34.3632895 L183.249781,34.5057635 C183.238838,34.575174 183.184122,34.9477985 182.943372,35.0793131 C182.855826,35.1194981 182.764633,35.1414172 182.651553,35.1414172 C182.491053,35.1414172 182.330553,35.0902726 182.199235,35.0464345 C182.137224,35.0208622 182.086156,35.0062495 182.035088,34.9916367 C182.009553,34.9843304 181.980372,34.9843304 181.95119,34.9843304 C181.805281,34.9843304 181.739622,35.017209 181.692201,35.0720067 C181.604656,35.1596831 181.568178,35.2656254 181.557235,35.3459954 C181.440508,35.9378108 180.787565,36.0327935 180.762031,36.0364467 C180.521281,36.0400999 180.42644,36.2446781 180.411849,36.3542735 C180.342542,37.0812567 180.061667,37.4210026 179.561928,37.4210026 C179.182565,37.4210026 178.814144,37.2456499 178.66094,37.1616267 L178.62811,37.1506672 L178.511383,37.1360545 C178.453019,37.1360545 178.398303,37.147014 178.347235,37.1616267 C178.256042,37.2054649 178.168497,37.2200776 178.084599,37.2200776 C177.694292,37.2200776 177.369644,36.8912913 177.249269,36.7524704 C177.249269,36.7378576 177.158076,36.6355685 177.008519,36.6355685 C176.227906,36.745164 175.644269,36.8182276 175.436349,36.8328404 C175.283144,36.8437999 175.21019,36.9607017 175.195599,37.0702972 C175.133588,37.468494 174.509826,41.0376526 170.854803,41.0376526 C170.088781,41.0376526 169.27169,40.7161726 168.655224,40.160889 C168.14819,39.7005881 167.852724,39.2220213 167.695872,38.5644485 C167.695872,38.5644485 167.524428,37.6803785 167.728701,37.1835458 C167.798008,37.0374185 167.812599,36.7268981 167.491599,36.5150135 C167.422292,36.4748285 167.34569,36.4565626 167.269088,36.4565626 C167.07211,36.4565626 166.937144,36.5880772 166.918906,36.6026899 C166.772997,36.7780426 166.535894,36.9789676 166.149235,36.9789676 C165.671383,36.9497422 165.401451,36.5515454 165.364974,36.1971867 C165.335792,36.0802849 165.240951,35.9779958 165.102338,35.9779958 C164.989258,35.9962617 164.525997,36.182574 163.946008,36.182574 C163.482747,36.182574 163.077849,36.0693254 162.731315,35.8428281 L162.621883,35.7770708 L162.479622,35.9049322 L162.366542,36.0072213 L162.413963,36.1606549 C163.143508,37.1908522 162.61094,38.4694658 162.607292,38.4877317 L162.570815,38.5644485 L162.618235,38.7288417 C162.662008,38.7982522 162.73861,38.8384372 162.800622,38.8493967 C163.176338,38.8968881 163.570292,39.1854895 163.592178,39.5836863 C163.614065,40.0038022 163.406144,40.2668313 163.231053,40.4166117 C163.121622,40.5115945 162.97936,40.7527045 163.132565,40.9938145 C163.249292,41.1728204 163.406144,41.2678031 163.584883,41.2678031 C163.705258,41.2678031 163.785508,41.2203117 163.803747,41.2166585 C163.956951,41.1618608 164.172167,41.125329 164.449394,41.125329 C164.836053,41.125329 165.186235,41.1910863 165.186235,41.1910863 C165.828235,41.3518263 166.306088,41.6440808 166.772997,42.1555263 C167.331099,42.7802204 167.644803,43.5875735 167.644803,44.3583949 C167.644803,48.0006172 164.084622,48.6472304 163.676076,48.7056813 C163.584883,48.7129876 163.457213,48.7970108 163.449917,48.9467913 C163.431678,49.1550226 163.355076,49.7395317 163.249292,50.4774745 C163.238349,50.6199485 163.304008,50.7185845 163.366019,50.7733822 C163.555701,50.9341222 163.978838,51.3651976 163.78186,51.8583772 C163.716201,52.0191172 163.763622,52.1506317 163.770917,52.1652445 C163.880349,52.3661695 164.18311,53.020089 163.956951,53.4584708 C163.803747,53.7178467 163.482747,53.8822399 162.97936,53.9333845 C162.862633,53.9516504 162.662008,54.0393267 162.651065,54.2913963 C162.647417,54.3023558 162.552576,54.9599285 161.957997,55.0804835 C161.866803,55.0950963 161.768315,55.1243217 161.688065,55.2156513 C161.633349,55.2631426 161.56769,55.3690849 161.604167,55.551744 C161.622406,55.6065417 161.640644,55.6576863 161.658883,55.7197904 C161.735485,55.9389813 161.826678,56.2020104 161.69536,56.4613863 C161.574985,56.6951899 161.253985,56.7609472 161.115372,56.7755599 L160.991349,56.7938258 C160.827201,56.8230513 160.728713,56.877849 160.68494,56.9801381 L160.65211,57.0568549 L160.706826,57.2285545 L161.104428,57.8167167 C161.093485,57.8276763 160.196144,59.5629376 160.196144,60.8269385 C160.196144,60.8707767 160.148724,60.9109617 160.097656,60.9109617 L160.097656,60.9109617 Z" id="Fill-35" fill="#000000" fill-rule="evenodd"></path>
            </g>
        </g>
    </g>
</svg>