<svg id="Ebene_1" data-name="Ebene 1" xmlns="http://www.w3.org/2000/svg" viewBox="0 0 1024 1024"><defs><style>.cls-1{fill:#8b8b8b;}.cls-2{fill:#fff;}</style></defs><title>Instagram_aktiv</title><rect class="cls-1" width="1024" height="1024"/><path class="cls-2" d="M511.59,354.35c-87,0-157.83,70.81-157.83,157.83S424.58,670,511.59,670s157.85-70.81,157.85-157.84S598.62,354.35,511.59,354.35Zm0,249a91.14,91.14,0,1,1,91.14-91.16A91.27,91.27,0,0,1,511.59,603.34Z"/><path class="cls-2" d="M711.85,349.64a37.35,37.35,0,1,1-37.34-37.34A37.38,37.38,0,0,1,711.85,349.64Z"/><path class="cls-2" d="M663.42,206H359.78C274.53,206,205,275.12,205,360.36V664c0,85.25,69.53,154,154.78,154H663.42C748.68,818,818,749.26,818,664V360.36C818,275.12,748.68,206,663.42,206ZM751,664c0,48.47-39.1,88-87.58,88H359.78C311.31,752,271,712.48,271,664V360.36C271,311.9,311.31,272,359.78,272H663.42C711.9,272,751,311.9,751,360.36Z"/></svg>